<svg xmlns="http://www.w3.org/2000/svg" xmlns:xlink="http://www.w3.org/1999/xlink" width="500" zoomAndPan="magnify" viewBox="0 0 375 374.999991" height="500" preserveAspectRatio="xMidYMid meet" version="1.0"><defs><filter x="0%" y="0%" width="100%" height="100%" id="id1"><feColorMatrix values="0 0 0 0 1 0 0 0 0 1 0 0 0 0 1 0 0 0 1 0" color-interpolation-filters="sRGB"/></filter><g/><mask id="id2"><g filter="url(#id1)"><rect x="-37.5" width="450" fill="#000000" y="-37.499999" height="449.999989" fill-opacity="0.4667"/></g></mask><clipPath id="id3"><path d="M 0.246094 1.796875 L 119.496094 1.796875 L 119.496094 150.589844 L 0.246094 150.589844 Z M 0.246094 1.796875 " clip-rule="nonzero"/></clipPath><clipPath id="id4"><rect x="0" width="122" y="0" height="151"/></clipPath><clipPath id="id5"><path d="M 81.414062 104.796875 L 200.664062 104.796875 L 200.664062 253.589844 L 81.414062 253.589844 Z M 81.414062 104.796875 " clip-rule="nonzero"/></clipPath></defs><g mask="url(#id2)"><g transform="matrix(1, 0, 0, 1, 169, 103)"><g clip-path="url(#id4)"><g clip-path="url(#id3)"><path fill="#a6a6a6" d="M 95.710938 73.640625 C 108.1875 68.078125 115.054688 57.890625 115.054688 44.949219 C 115.054688 17.121094 97.566406 1.796875 65.820312 1.796875 L 3.316406 1.796875 C 1.625 1.796875 0.246094 3.175781 0.246094 4.867188 L 0.246094 147.519531 C 0.246094 149.214844 1.625 150.589844 3.316406 150.589844 L 65.820312 150.589844 C 101.957031 150.589844 119.519531 136.265625 119.519531 106.800781 C 119.519531 98.355469 113.699219 79.128906 95.710938 73.640625 Z M 65.820312 124.4375 L 27.882812 124.4375 L 27.882812 86.183594 L 65.820312 86.183594 C 78.359375 86.183594 91.675781 92.984375 91.675781 105.589844 C 91.675781 118.613281 78.695312 124.4375 65.820312 124.4375 Z M 65.820312 61.53125 L 27.882812 61.53125 L 27.882812 27.304688 L 65.820312 27.304688 C 85.667969 27.304688 87.210938 41.296875 87.210938 45.585938 C 87.210938 53.007812 84.777344 61.53125 65.820312 61.53125 Z M 65.820312 61.53125 " fill-opacity="1" fill-rule="nonzero"/></g></g></g></g><g clip-path="url(#id5)"><path fill="#008037" d="M 176.878906 176.640625 C 189.355469 171.078125 196.222656 160.890625 196.222656 147.949219 C 196.222656 120.121094 178.734375 104.796875 146.988281 104.796875 L 84.484375 104.796875 C 82.792969 104.796875 81.414062 106.175781 81.414062 107.867188 L 81.414062 250.519531 C 81.414062 252.214844 82.792969 253.589844 84.484375 253.589844 L 146.988281 253.589844 C 183.125 253.589844 200.6875 239.265625 200.6875 209.800781 C 200.6875 201.355469 194.867188 182.128906 176.878906 176.640625 Z M 146.988281 227.4375 L 109.050781 227.4375 L 109.050781 189.183594 L 146.988281 189.183594 C 159.527344 189.183594 172.839844 195.984375 172.839844 208.589844 C 172.839844 221.613281 159.863281 227.4375 146.988281 227.4375 Z M 146.988281 164.53125 L 109.050781 164.53125 L 109.050781 130.304688 L 146.988281 130.304688 C 166.835938 130.304688 168.378906 144.296875 168.378906 148.585938 C 168.378906 156.007812 165.945312 164.53125 146.988281 164.53125 Z M 146.988281 164.53125 " fill-opacity="1" fill-rule="nonzero"/></g><g fill="#000000" fill-opacity="1"><g transform="translate(106.256239, 294.932501)"><g><path d="M 2.15625 -15.703125 L 6.59375 -15.703125 C 8.675781 -15.703125 10.179688 -15.390625 11.109375 -14.765625 C 12.046875 -14.148438 12.515625 -13.164062 12.515625 -11.8125 C 12.515625 -10.882812 12.253906 -10.117188 11.734375 -9.515625 C 11.210938 -8.910156 10.457031 -8.519531 9.46875 -8.34375 L 9.46875 -8.234375 C 11.851562 -7.816406 13.046875 -6.5625 13.046875 -4.46875 C 13.046875 -3.0625 12.566406 -1.960938 11.609375 -1.171875 C 10.660156 -0.390625 9.335938 0 7.640625 0 L 2.15625 0 Z M 3.984375 -8.984375 L 7 -8.984375 C 8.28125 -8.984375 9.203125 -9.179688 9.765625 -9.578125 C 10.335938 -9.984375 10.625 -10.671875 10.625 -11.640625 C 10.625 -12.515625 10.304688 -13.144531 9.671875 -13.53125 C 9.046875 -13.925781 8.046875 -14.125 6.671875 -14.125 L 3.984375 -14.125 Z M 3.984375 -7.4375 L 3.984375 -1.5625 L 7.265625 -1.5625 C 8.523438 -1.5625 9.476562 -1.804688 10.125 -2.296875 C 10.769531 -2.785156 11.09375 -3.550781 11.09375 -4.59375 C 11.09375 -5.570312 10.765625 -6.289062 10.109375 -6.75 C 9.453125 -7.207031 8.453125 -7.4375 7.109375 -7.4375 Z M 3.984375 -7.4375 "/></g></g></g><g fill="#000000" fill-opacity="1"><g transform="translate(120.508595, 294.932501)"><g><path d="M 6.859375 0.21875 C 5.117188 0.21875 3.742188 -0.3125 2.734375 -1.375 C 1.734375 -2.4375 1.234375 -3.910156 1.234375 -5.796875 C 1.234375 -7.691406 1.703125 -9.195312 2.640625 -10.3125 C 3.578125 -11.425781 4.832031 -11.984375 6.40625 -11.984375 C 7.875 -11.984375 9.035156 -11.5 9.890625 -10.53125 C 10.753906 -9.5625 11.1875 -8.28125 11.1875 -6.6875 L 11.1875 -5.5625 L 3.078125 -5.5625 C 3.117188 -4.175781 3.46875 -3.125 4.125 -2.40625 C 4.789062 -1.695312 5.722656 -1.34375 6.921875 -1.34375 C 8.191406 -1.34375 9.445312 -1.609375 10.6875 -2.140625 L 10.6875 -0.546875 C 10.0625 -0.273438 9.46875 -0.0820312 8.90625 0.03125 C 8.34375 0.15625 7.660156 0.21875 6.859375 0.21875 Z M 6.375 -10.5 C 5.4375 -10.5 4.6875 -10.1875 4.125 -9.5625 C 3.5625 -8.945312 3.226562 -8.097656 3.125 -7.015625 L 9.28125 -7.015625 C 9.28125 -8.140625 9.03125 -9 8.53125 -9.59375 C 8.03125 -10.195312 7.3125 -10.5 6.375 -10.5 Z M 6.375 -10.5 "/></g></g></g><g fill="#000000" fill-opacity="1"><g transform="translate(132.849182, 294.932501)"><g><path d="M 9.953125 0 L 9.953125 -7.609375 C 9.953125 -8.578125 9.734375 -9.296875 9.296875 -9.765625 C 8.859375 -10.234375 8.171875 -10.46875 7.234375 -10.46875 C 6.003906 -10.46875 5.101562 -10.132812 4.53125 -9.46875 C 3.957031 -8.800781 3.671875 -7.703125 3.671875 -6.171875 L 3.671875 0 L 1.890625 0 L 1.890625 -11.78125 L 3.34375 -11.78125 L 3.625 -10.15625 L 3.71875 -10.15625 C 4.082031 -10.738281 4.59375 -11.1875 5.25 -11.5 C 5.90625 -11.820312 6.640625 -11.984375 7.453125 -11.984375 C 8.867188 -11.984375 9.9375 -11.640625 10.65625 -10.953125 C 11.375 -10.273438 11.734375 -9.1875 11.734375 -7.6875 L 11.734375 0 Z M 9.953125 0 "/></g></g></g><g fill="#000000" fill-opacity="1"><g transform="translate(146.349719, 294.932501)"><g><path d="M 0.46875 5.28125 C -0.21875 5.28125 -0.769531 5.191406 -1.1875 5.015625 L -1.1875 3.5625 C -0.695312 3.707031 -0.210938 3.78125 0.265625 3.78125 C 0.828125 3.78125 1.238281 3.628906 1.5 3.328125 C 1.757812 3.023438 1.890625 2.5625 1.890625 1.9375 L 1.890625 -11.78125 L 3.671875 -11.78125 L 3.671875 1.8125 C 3.671875 4.125 2.601562 5.28125 0.46875 5.28125 Z M 1.734375 -14.96875 C 1.734375 -15.375 1.832031 -15.671875 2.03125 -15.859375 C 2.238281 -16.046875 2.492188 -16.140625 2.796875 -16.140625 C 3.078125 -16.140625 3.320312 -16.039062 3.53125 -15.84375 C 3.738281 -15.65625 3.84375 -15.363281 3.84375 -14.96875 C 3.84375 -14.5625 3.738281 -14.257812 3.53125 -14.0625 C 3.320312 -13.863281 3.078125 -13.765625 2.796875 -13.765625 C 2.492188 -13.765625 2.238281 -13.863281 2.03125 -14.0625 C 1.832031 -14.257812 1.734375 -14.5625 1.734375 -14.96875 Z M 1.734375 -14.96875 "/></g></g></g><g fill="#000000" fill-opacity="1"><g transform="translate(151.913184, 294.932501)"><g><path d="M 9.125 0 L 8.78125 -1.671875 L 8.6875 -1.671875 C 8.101562 -0.929688 7.519531 -0.429688 6.9375 -0.171875 C 6.351562 0.0859375 5.625 0.21875 4.75 0.21875 C 3.582031 0.21875 2.664062 -0.0820312 2 -0.6875 C 1.34375 -1.289062 1.015625 -2.144531 1.015625 -3.25 C 1.015625 -5.632812 2.914062 -6.882812 6.71875 -7 L 8.71875 -7.0625 L 8.71875 -7.78125 C 8.71875 -8.707031 8.515625 -9.390625 8.109375 -9.828125 C 7.710938 -10.273438 7.078125 -10.5 6.203125 -10.5 C 5.222656 -10.5 4.113281 -10.195312 2.875 -9.59375 L 2.328125 -10.953125 C 2.910156 -11.273438 3.546875 -11.523438 4.234375 -11.703125 C 4.929688 -11.878906 5.625 -11.96875 6.3125 -11.96875 C 7.71875 -11.96875 8.757812 -11.65625 9.4375 -11.03125 C 10.113281 -10.40625 10.453125 -9.40625 10.453125 -8.03125 L 10.453125 0 Z M 5.109375 -1.25 C 6.210938 -1.25 7.082031 -1.550781 7.71875 -2.15625 C 8.351562 -2.769531 8.671875 -3.628906 8.671875 -4.734375 L 8.671875 -5.796875 L 6.890625 -5.71875 C 5.472656 -5.664062 4.445312 -5.441406 3.8125 -5.046875 C 3.1875 -4.660156 2.875 -4.054688 2.875 -3.234375 C 2.875 -2.585938 3.066406 -2.09375 3.453125 -1.75 C 3.847656 -1.414062 4.398438 -1.25 5.109375 -1.25 Z M 5.109375 -1.25 "/></g></g></g><g fill="#000000" fill-opacity="1"><g transform="translate(164.146368, 294.932501)"><g><path d="M 16.890625 0 L 16.890625 -7.65625 C 16.890625 -8.59375 16.6875 -9.296875 16.28125 -9.765625 C 15.882812 -10.234375 15.265625 -10.46875 14.421875 -10.46875 C 13.316406 -10.46875 12.5 -10.148438 11.96875 -9.515625 C 11.4375 -8.878906 11.171875 -7.898438 11.171875 -6.578125 L 11.171875 0 L 9.390625 0 L 9.390625 -7.65625 C 9.390625 -8.59375 9.1875 -9.296875 8.78125 -9.765625 C 8.382812 -10.234375 7.757812 -10.46875 6.90625 -10.46875 C 5.789062 -10.46875 4.972656 -10.132812 4.453125 -9.46875 C 3.929688 -8.800781 3.671875 -7.703125 3.671875 -6.171875 L 3.671875 0 L 1.890625 0 L 1.890625 -11.78125 L 3.34375 -11.78125 L 3.625 -10.15625 L 3.71875 -10.15625 C 4.050781 -10.726562 4.523438 -11.175781 5.140625 -11.5 C 5.753906 -11.820312 6.441406 -11.984375 7.203125 -11.984375 C 9.035156 -11.984375 10.238281 -11.316406 10.8125 -9.984375 L 10.890625 -9.984375 C 11.242188 -10.609375 11.753906 -11.097656 12.421875 -11.453125 C 13.085938 -11.804688 13.847656 -11.984375 14.703125 -11.984375 C 16.023438 -11.984375 17.019531 -11.640625 17.6875 -10.953125 C 18.351562 -10.273438 18.6875 -9.1875 18.6875 -7.6875 L 18.6875 0 Z M 16.890625 0 "/></g></g></g><g fill="#000000" fill-opacity="1"><g transform="translate(184.606606, 294.932501)"><g><path d="M 3.671875 0 L 1.890625 0 L 1.890625 -11.78125 L 3.671875 -11.78125 Z M 1.734375 -14.96875 C 1.734375 -15.375 1.832031 -15.671875 2.03125 -15.859375 C 2.238281 -16.046875 2.492188 -16.140625 2.796875 -16.140625 C 3.078125 -16.140625 3.320312 -16.039062 3.53125 -15.84375 C 3.738281 -15.65625 3.84375 -15.363281 3.84375 -14.96875 C 3.84375 -14.5625 3.738281 -14.257812 3.53125 -14.0625 C 3.320312 -13.863281 3.078125 -13.765625 2.796875 -13.765625 C 2.492188 -13.765625 2.238281 -13.863281 2.03125 -14.0625 C 1.832031 -14.257812 1.734375 -14.5625 1.734375 -14.96875 Z M 1.734375 -14.96875 "/></g></g></g><g fill="#000000" fill-opacity="1"><g transform="translate(190.170071, 294.932501)"><g><path d="M 9.953125 0 L 9.953125 -7.609375 C 9.953125 -8.578125 9.734375 -9.296875 9.296875 -9.765625 C 8.859375 -10.234375 8.171875 -10.46875 7.234375 -10.46875 C 6.003906 -10.46875 5.101562 -10.132812 4.53125 -9.46875 C 3.957031 -8.800781 3.671875 -7.703125 3.671875 -6.171875 L 3.671875 0 L 1.890625 0 L 1.890625 -11.78125 L 3.34375 -11.78125 L 3.625 -10.15625 L 3.71875 -10.15625 C 4.082031 -10.738281 4.59375 -11.1875 5.25 -11.5 C 5.90625 -11.820312 6.640625 -11.984375 7.453125 -11.984375 C 8.867188 -11.984375 9.9375 -11.640625 10.65625 -10.953125 C 11.375 -10.273438 11.734375 -9.1875 11.734375 -7.6875 L 11.734375 0 Z M 9.953125 0 "/></g></g></g><g fill="#000000" fill-opacity="1"><g transform="translate(203.670607, 294.932501)"><g/></g></g><g fill="#000000" fill-opacity="1"><g transform="translate(209.384436, 294.932501)"><g><path d="M 2.15625 -15.703125 L 6.59375 -15.703125 C 8.675781 -15.703125 10.179688 -15.390625 11.109375 -14.765625 C 12.046875 -14.148438 12.515625 -13.164062 12.515625 -11.8125 C 12.515625 -10.882812 12.253906 -10.117188 11.734375 -9.515625 C 11.210938 -8.910156 10.457031 -8.519531 9.46875 -8.34375 L 9.46875 -8.234375 C 11.851562 -7.816406 13.046875 -6.5625 13.046875 -4.46875 C 13.046875 -3.0625 12.566406 -1.960938 11.609375 -1.171875 C 10.660156 -0.390625 9.335938 0 7.640625 0 L 2.15625 0 Z M 3.984375 -8.984375 L 7 -8.984375 C 8.28125 -8.984375 9.203125 -9.179688 9.765625 -9.578125 C 10.335938 -9.984375 10.625 -10.671875 10.625 -11.640625 C 10.625 -12.515625 10.304688 -13.144531 9.671875 -13.53125 C 9.046875 -13.925781 8.046875 -14.125 6.671875 -14.125 L 3.984375 -14.125 Z M 3.984375 -7.4375 L 3.984375 -1.5625 L 7.265625 -1.5625 C 8.523438 -1.5625 9.476562 -1.804688 10.125 -2.296875 C 10.769531 -2.785156 11.09375 -3.550781 11.09375 -4.59375 C 11.09375 -5.570312 10.765625 -6.289062 10.109375 -6.75 C 9.453125 -7.207031 8.453125 -7.4375 7.109375 -7.4375 Z M 3.984375 -7.4375 "/></g></g></g><g fill="#000000" fill-opacity="1"><g transform="translate(223.636792, 294.932501)"><g><path d="M 9.125 0 L 8.78125 -1.671875 L 8.6875 -1.671875 C 8.101562 -0.929688 7.519531 -0.429688 6.9375 -0.171875 C 6.351562 0.0859375 5.625 0.21875 4.75 0.21875 C 3.582031 0.21875 2.664062 -0.0820312 2 -0.6875 C 1.34375 -1.289062 1.015625 -2.144531 1.015625 -3.25 C 1.015625 -5.632812 2.914062 -6.882812 6.71875 -7 L 8.71875 -7.0625 L 8.71875 -7.78125 C 8.71875 -8.707031 8.515625 -9.390625 8.109375 -9.828125 C 7.710938 -10.273438 7.078125 -10.5 6.203125 -10.5 C 5.222656 -10.5 4.113281 -10.195312 2.875 -9.59375 L 2.328125 -10.953125 C 2.910156 -11.273438 3.546875 -11.523438 4.234375 -11.703125 C 4.929688 -11.878906 5.625 -11.96875 6.3125 -11.96875 C 7.71875 -11.96875 8.757812 -11.65625 9.4375 -11.03125 C 10.113281 -10.40625 10.453125 -9.40625 10.453125 -8.03125 L 10.453125 0 Z M 5.109375 -1.25 C 6.210938 -1.25 7.082031 -1.550781 7.71875 -2.15625 C 8.351562 -2.769531 8.671875 -3.628906 8.671875 -4.734375 L 8.671875 -5.796875 L 6.890625 -5.71875 C 5.472656 -5.664062 4.445312 -5.441406 3.8125 -5.046875 C 3.1875 -4.660156 2.875 -4.054688 2.875 -3.234375 C 2.875 -2.585938 3.066406 -2.09375 3.453125 -1.75 C 3.847656 -1.414062 4.398438 -1.25 5.109375 -1.25 Z M 5.109375 -1.25 "/></g></g></g><g fill="#000000" fill-opacity="1"><g transform="translate(235.869976, 294.932501)"><g><path d="M 3.65625 -6.03125 C 3.957031 -6.46875 4.425781 -7.039062 5.0625 -7.75 L 8.859375 -11.78125 L 10.984375 -11.78125 L 6.203125 -6.75 L 11.3125 0 L 9.15625 0 L 5 -5.5625 L 3.65625 -4.40625 L 3.65625 0 L 1.890625 0 L 1.890625 -16.71875 L 3.65625 -16.71875 L 3.65625 -7.859375 C 3.65625 -7.460938 3.625 -6.851562 3.5625 -6.03125 Z M 3.65625 -6.03125 "/></g></g></g><g fill="#000000" fill-opacity="1"><g transform="translate(247.415783, 294.932501)"><g><path d="M 6.859375 0.21875 C 5.117188 0.21875 3.742188 -0.3125 2.734375 -1.375 C 1.734375 -2.4375 1.234375 -3.910156 1.234375 -5.796875 C 1.234375 -7.691406 1.703125 -9.195312 2.640625 -10.3125 C 3.578125 -11.425781 4.832031 -11.984375 6.40625 -11.984375 C 7.875 -11.984375 9.035156 -11.5 9.890625 -10.53125 C 10.753906 -9.5625 11.1875 -8.28125 11.1875 -6.6875 L 11.1875 -5.5625 L 3.078125 -5.5625 C 3.117188 -4.175781 3.46875 -3.125 4.125 -2.40625 C 4.789062 -1.695312 5.722656 -1.34375 6.921875 -1.34375 C 8.191406 -1.34375 9.445312 -1.609375 10.6875 -2.140625 L 10.6875 -0.546875 C 10.0625 -0.273438 9.46875 -0.0820312 8.90625 0.03125 C 8.34375 0.15625 7.660156 0.21875 6.859375 0.21875 Z M 6.375 -10.5 C 5.4375 -10.5 4.6875 -10.1875 4.125 -9.5625 C 3.5625 -8.945312 3.226562 -8.097656 3.125 -7.015625 L 9.28125 -7.015625 C 9.28125 -8.140625 9.03125 -9 8.53125 -9.59375 C 8.03125 -10.195312 7.3125 -10.5 6.375 -10.5 Z M 6.375 -10.5 "/></g></g></g><g fill="#000000" fill-opacity="1"><g transform="translate(259.756369, 294.932501)"><g><path d="M 7.265625 -11.984375 C 7.785156 -11.984375 8.253906 -11.941406 8.671875 -11.859375 L 8.421875 -10.203125 C 7.929688 -10.304688 7.503906 -10.359375 7.140625 -10.359375 C 6.179688 -10.359375 5.363281 -9.972656 4.6875 -9.203125 C 4.007812 -8.429688 3.671875 -7.46875 3.671875 -6.3125 L 3.671875 0 L 1.890625 0 L 1.890625 -11.78125 L 3.359375 -11.78125 L 3.5625 -9.59375 L 3.65625 -9.59375 C 4.09375 -10.363281 4.617188 -10.953125 5.234375 -11.359375 C 5.847656 -11.773438 6.523438 -11.984375 7.265625 -11.984375 Z M 7.265625 -11.984375 "/></g></g></g></svg>