<svg xmlns="http://www.w3.org/2000/svg" xmlns:xlink="http://www.w3.org/1999/xlink" width="500" zoomAndPan="magnify" viewBox="0 0 375 374.999991" height="500" preserveAspectRatio="xMidYMid meet" version="1.0"><defs><g/><clipPath id="id1"><path d="M 74 60 L 294 60 L 294 244 L 74 244 Z M 74 60 " clip-rule="nonzero"/></clipPath><clipPath id="id2"><path d="M 65.539062 84.21875 L 280.214844 49.292969 L 309.964844 232.136719 L 95.289062 267.066406 Z M 65.539062 84.21875 " clip-rule="nonzero"/></clipPath><clipPath id="id3"><path d="M 65.539062 84.21875 L 280.214844 49.292969 L 309.964844 232.136719 L 95.289062 267.066406 Z M 65.539062 84.21875 " clip-rule="nonzero"/></clipPath><clipPath id="id4"><path d="M 69 60 L 294 60 L 294 244 L 69 244 Z M 69 60 " clip-rule="nonzero"/></clipPath><clipPath id="id5"><path d="M 65.539062 84.21875 L 280.214844 49.292969 L 309.964844 232.136719 L 95.289062 267.066406 Z M 65.539062 84.21875 " clip-rule="nonzero"/></clipPath><clipPath id="id6"><path d="M 65.539062 84.21875 L 280.214844 49.292969 L 309.964844 232.136719 L 95.289062 267.066406 Z M 65.539062 84.21875 " clip-rule="nonzero"/></clipPath><clipPath id="id7"><path d="M 76 114 L 265 114 L 265 218 L 76 218 Z M 76 114 " clip-rule="nonzero"/></clipPath><clipPath id="id8"><path d="M 65.539062 84.21875 L 280.214844 49.292969 L 309.964844 232.136719 L 95.289062 267.066406 Z M 65.539062 84.21875 " clip-rule="nonzero"/></clipPath><clipPath id="id9"><path d="M 65.539062 84.21875 L 280.214844 49.292969 L 309.964844 232.136719 L 95.289062 267.066406 Z M 65.539062 84.21875 " clip-rule="nonzero"/></clipPath></defs><g clip-path="url(#id1)"><g clip-path="url(#id2)"><g clip-path="url(#id3)"><path fill="#f4f6fc" d="M 286.277344 191.652344 C 285.839844 193.027344 285.375 194.398438 284.878906 195.757812 C 280.167969 208.722656 272.929688 220.757812 261.96875 228.957031 C 255.496094 234.910156 247.363281 240.332031 237.300781 243.832031 C 227.382812 239.929688 219.488281 234.183594 213.257812 227.972656 C 204.320312 220.699219 198.136719 210.820312 193.917969 200.03125 C 193.84375 199.839844 193.769531 199.652344 193.699219 199.460938 C 190.921875 198.425781 188.714844 197.53125 187.300781 196.925781 C 187.160156 197.15625 187.03125 197.378906 186.898438 197.617188 C 185.625 201.09375 184.859375 204.175781 184.445312 206.859375 L 182.574219 207.429688 L 176.648438 209.238281 L 181.773438 211.027344 L 184.03125 211.820312 C 183.988281 218.148438 186.003906 221.179688 186.003906 221.179688 C 186.277344 222.839844 185.039062 222.925781 185.039062 222.925781 C 170.378906 221.882812 166.171875 210.660156 165.019531 203.074219 C 164.988281 202.90625 164.964844 202.738281 164.945312 202.574219 C 164.882812 202.105469 164.828125 201.65625 164.78125 201.222656 C 164.75 201.183594 164.710938 201.136719 164.675781 201.101562 C 164.703125 201.039062 164.730469 200.972656 164.75 200.90625 C 164.601562 199.304688 164.585938 197.996094 164.597656 197.152344 C 164.226562 197.140625 163.871094 197.148438 163.511719 197.1875 C 163.378906 197.179688 163.242188 197.175781 163.105469 197.199219 L 161.496094 197.460938 C 161.425781 197.386719 161.359375 197.3125 161.285156 197.238281 C 160.546875 197.292969 159.816406 197.34375 159.082031 197.386719 C 153.371094 197.695312 147.652344 197.601562 141.949219 196.984375 C 134.960938 196.226562 128.359375 194.847656 122.003906 191.746094 C 119.808594 190.671875 116.242188 189.152344 113.898438 187.019531 C 113.839844 186.96875 113.785156 186.917969 113.730469 186.867188 C 110.03125 183.488281 109.902344 180.679688 109.902344 180.679688 L 113.164062 178.292969 L 113.355469 169.742188 L 116.726562 174.390625 L 116.609375 170.144531 L 119.648438 173.132812 C 119.660156 173.039062 119.671875 172.949219 119.683594 172.855469 L 119.417969 168.757812 L 122.617188 171.691406 L 122.617188 167.925781 L 124.335938 169.980469 L 124.089844 166.480469 L 127.382812 169.410156 L 126.714844 165.292969 L 129.414062 167.5625 C 129.542969 166.132812 129.703125 164.238281 129.660156 163.851562 C 129.59375 163.746094 129.523438 163.644531 129.445312 163.542969 C 129.140625 164.277344 128.816406 164.953125 128.816406 164.953125 C 128.816406 164.953125 127.207031 162.761719 126.230469 161.503906 C 125.679688 161.375 125.128906 161.234375 124.589844 161.058594 C 124.445312 161.007812 124.308594 160.960938 124.175781 160.910156 L 123.984375 161.894531 C 124.066406 162.292969 124.011719 162.464844 123.859375 162.539062 L 123.574219 164.015625 L 120.402344 159.511719 C 120.285156 159.546875 120.15625 159.550781 120.019531 159.5 C 119.601562 159.335938 118.667969 159.085938 117.976562 158.691406 L 117.179688 161.542969 L 114.523438 157.25 C 114.417969 157.269531 114.296875 157.253906 114.164062 157.191406 C 113.464844 156.835938 112.847656 156.25 112.3125 155.675781 C 112.257812 155.621094 112.203125 155.5625 112.144531 155.5 L 111.714844 159.175781 L 109.664062 155.644531 C 109.375 155.3125 109.140625 154.960938 108.980469 154.683594 C 108.925781 154.585938 108.867188 154.488281 108.816406 154.386719 C 108.691406 154.410156 108.554688 154.386719 108.417969 154.292969 C 108.121094 154.082031 107.78125 153.820312 107.464844 153.523438 L 106.824219 157.09375 L 101.523438 148.753906 C 93.699219 144.527344 87.320312 134.496094 87.304688 134.476562 L 87.304688 134.472656 C 82.070312 128.933594 74.28125 112.082031 74.28125 112.082031 L 98.640625 111.460938 L 98.648438 111.457031 C 99.746094 111.390625 100.839844 111.332031 101.9375 111.308594 C 113.4375 111.058594 125.019531 111.714844 136.492188 112.433594 C 145.328125 112.988281 154.144531 113.769531 162.953125 114.628906 C 163.140625 114.148438 163.445312 113.691406 163.699219 113.269531 C 163.984375 112.789062 164.285156 112.183594 164.6875 111.71875 C 164.691406 111.714844 164.691406 111.710938 164.695312 111.703125 C 165.679688 109.675781 167.179688 107.617188 167.765625 106.664062 C 171.523438 100.527344 176.15625 94.894531 180.5 89.160156 C 181.894531 87.320312 183.351562 85.519531 184.867188 83.757812 C 184.921875 83.683594 184.953125 83.644531 184.953125 83.644531 L 184.960938 83.648438 C 185.011719 83.589844 185.066406 83.53125 185.117188 83.46875 C 185.140625 83.4375 185.164062 83.40625 185.191406 83.375 C 201.25 62.234375 217.707031 60.109375 217.707031 60.109375 L 205.914062 91.121094 L 199.546875 89.859375 C 199.664062 89.972656 199.777344 90.085938 199.882812 90.1875 C 200.246094 90.53125 200.589844 90.894531 200.941406 91.25 L 204.527344 93.769531 L 204.644531 94.507812 L 199.652344 116.453125 C 201.667969 116.90625 207.261719 118.199219 214.492188 120.195312 C 214.691406 120.246094 214.890625 120.304688 215.097656 120.363281 C 228.644531 114.375 240.15625 105.445312 240.15625 105.445312 C 240.15625 105.445312 263.800781 125.386719 283.308594 127.355469 C 283.316406 127.355469 290.039062 127.078125 291.597656 126.339844 C 292.667969 125.828125 296.230469 160.503906 286.277344 191.652344 Z M 286.277344 191.652344 " fill-opacity="1" fill-rule="nonzero"/></g></g></g><g clip-path="url(#id4)"><g clip-path="url(#id5)"><g clip-path="url(#id6)"><path fill="#050a30" d="M 291.597656 126.339844 C 290.039062 127.082031 283.316406 127.355469 283.308594 127.355469 C 263.800781 125.386719 240.15625 105.445312 240.15625 105.445312 C 240.15625 105.445312 229.90625 113.398438 217.367188 119.324219 C 208.867188 117.054688 202.285156 115.804688 199.894531 115.382812 L 202.875 102.292969 L 205.023438 93.085938 L 200.324219 90.015625 L 205.917969 91.121094 L 217.710938 60.109375 C 217.710938 60.109375 201.253906 62.234375 185.191406 83.375 C 185.164062 83.40625 185.144531 83.4375 185.117188 83.46875 C 185.066406 83.53125 185.015625 83.589844 184.964844 83.648438 L 184.953125 83.644531 C 184.953125 83.644531 184.925781 83.6875 184.867188 83.757812 C 183.351562 85.519531 181.894531 87.320312 180.5 89.160156 C 176.160156 94.894531 171.523438 100.527344 167.765625 106.664062 C 167.195312 107.589844 165.769531 109.558594 164.785156 111.527344 L 146.074219 110.886719 C 143.453125 110.761719 140.722656 110.671875 137.921875 110.609375 L 137.90625 110.609375 L 137.910156 110.609375 C 129.738281 110.433594 120.988281 110.515625 112.683594 110.71875 L 69.820312 110.535156 C 69.820312 110.535156 87.015625 139.683594 95.332031 144.121094 C 97.203125 145.890625 99.304688 147.558594 101.523438 148.753906 L 106.824219 157.09375 L 107.464844 153.523438 C 107.78125 153.816406 108.121094 154.082031 108.417969 154.292969 C 108.554688 154.386719 108.691406 154.410156 108.816406 154.386719 C 108.867188 154.488281 108.925781 154.585938 108.980469 154.683594 C 109.140625 154.960938 109.375 155.3125 109.664062 155.644531 L 111.714844 159.171875 L 112.144531 155.5 C 112.203125 155.5625 112.257812 155.621094 112.3125 155.675781 C 112.847656 156.25 113.464844 156.835938 114.164062 157.1875 C 114.296875 157.253906 114.417969 157.269531 114.523438 157.25 L 117.179688 161.542969 L 117.976562 158.691406 C 118.667969 159.082031 119.601562 159.335938 120.019531 159.5 C 120.15625 159.550781 120.285156 159.546875 120.402344 159.511719 L 123.574219 164.015625 L 123.859375 162.539062 C 124.011719 162.464844 124.066406 162.292969 123.984375 161.894531 L 124.175781 160.910156 C 124.308594 160.960938 124.445312 161.007812 124.589844 161.054688 C 125.128906 161.230469 125.679688 161.375 126.230469 161.503906 C 127.207031 162.761719 128.816406 164.949219 128.816406 164.949219 C 128.816406 164.949219 129.140625 164.273438 129.445312 163.542969 C 129.523438 163.644531 129.59375 163.746094 129.660156 163.851562 C 129.703125 164.238281 129.542969 166.132812 129.414062 167.5625 L 126.714844 165.292969 L 127.382812 169.410156 L 124.089844 166.480469 L 124.335938 169.980469 L 122.617188 167.925781 L 122.617188 171.691406 L 119.417969 168.757812 L 119.683594 172.855469 C 119.671875 172.949219 119.660156 173.039062 119.648438 173.132812 L 116.609375 170.144531 L 116.726562 174.390625 L 113.355469 169.742188 L 113.164062 178.292969 L 109.902344 180.679688 C 109.902344 180.679688 110.03125 183.488281 113.730469 186.867188 C 113.785156 186.917969 113.839844 186.96875 113.898438 187.019531 C 116.242188 189.152344 119.808594 190.671875 122.003906 191.746094 C 128.359375 194.847656 134.957031 196.222656 141.949219 196.980469 C 147.652344 197.601562 153.371094 197.695312 159.082031 197.386719 C 159.816406 197.34375 160.550781 197.292969 161.285156 197.238281 C 161.355469 197.3125 161.425781 197.386719 161.496094 197.460938 L 163.105469 197.199219 C 163.242188 197.175781 163.378906 197.175781 163.511719 197.1875 C 163.871094 197.148438 164.230469 197.140625 164.597656 197.152344 C 164.585938 197.996094 164.601562 199.304688 164.75 200.90625 C 164.730469 200.972656 164.703125 201.039062 164.675781 201.101562 C 164.710938 201.136719 164.75 201.183594 164.78125 201.222656 C 164.828125 201.65625 164.882812 202.105469 164.945312 202.574219 C 164.964844 202.738281 164.988281 202.90625 165.019531 203.074219 C 166.171875 210.660156 170.378906 221.878906 185.039062 222.925781 C 185.039062 222.925781 186.273438 222.839844 186.003906 221.179688 C 186.003906 221.179688 183.988281 218.148438 184.03125 211.816406 L 181.773438 211.027344 L 176.648438 209.238281 L 182.574219 207.425781 L 184.445312 206.859375 C 184.859375 204.175781 185.621094 201.09375 186.898438 197.613281 C 187.03125 197.378906 187.160156 197.152344 187.300781 196.925781 C 188.714844 197.527344 190.921875 198.425781 193.699219 199.457031 C 193.769531 199.652344 193.84375 199.839844 193.917969 200.03125 C 198.136719 210.820312 204.320312 220.699219 213.257812 227.972656 C 219.488281 234.183594 227.382812 239.929688 237.300781 243.828125 C 247.363281 240.332031 255.496094 234.910156 261.96875 228.957031 C 272.929688 220.753906 280.167969 208.722656 284.878906 195.757812 C 285.375 194.398438 285.839844 193.027344 286.277344 191.652344 C 296.230469 160.503906 292.667969 125.828125 291.597656 126.339844 Z M 201.65625 88.039062 C 201.65625 88.039062 201.652344 88.039062 201.652344 88.039062 Z M 167.988281 111.164062 C 169.164062 109.246094 170.378906 107.351562 171.648438 105.492188 C 172.910156 103.636719 174.199219 101.78125 175.5 99.933594 L 175.496094 99.929688 C 177.839844 96.601562 180.234375 93.300781 182.648438 90.058594 L 182.652344 90.058594 C 182.875 89.753906 183.097656 89.460938 183.320312 89.160156 C 186.6875 84.652344 190.457031 80.203125 194.390625 76.105469 C 197.671875 73.042969 201.640625 69.648438 205.703125 66.878906 C 206.082031 66.664062 206.460938 66.457031 206.847656 66.25 L 212.28125 63.746094 L 206.183594 77.683594 C 205.386719 79.328125 204.601562 80.980469 203.917969 82.695312 C 203.847656 82.867188 203.78125 83.035156 203.71875 83.210938 C 203.613281 83.484375 203.511719 83.761719 203.40625 84.035156 L 202.230469 86.726562 C 202.054688 87.007812 201.886719 87.292969 201.769531 87.605469 L 195.246094 88.007812 L 199.074219 91.292969 C 199.75 92.097656 200.386719 92.953125 201.09375 93.734375 C 200.480469 94.296875 200.265625 95.332031 199.96875 96.113281 C 199.847656 96.433594 199.742188 96.761719 199.632812 97.082031 C 199.253906 96.972656 198.875 96.875 198.480469 96.785156 C 197.8125 96.632812 197.011719 96.359375 196.324219 96.5 C 196.265625 96.507812 196.203125 96.574219 196.222656 96.636719 C 196.40625 97.273438 196.960938 97.734375 197.445312 98.15625 C 197.914062 98.566406 198.402344 98.929688 198.917969 99.257812 C 198.433594 100.800781 197.988281 102.355469 197.503906 103.890625 C 197.355469 104.367188 197.195312 104.847656 197.046875 105.328125 L 196.582031 106.371094 C 191.914062 105.980469 180.617188 105.464844 172.664062 108.644531 C 172.664062 108.644531 182.851562 109.203125 190.246094 111.4375 C 182.664062 110.910156 170.890625 111.542969 167.605469 111.742188 C 167.761719 111.511719 167.898438 111.308594 167.988281 111.164062 Z M 105.339844 150.398438 C 105.371094 150.484375 105.246094 151.21875 105.242188 151.398438 C 105.246094 151.773438 105.292969 152.140625 105.351562 152.511719 L 105.359375 152.566406 L 105.21875 152.808594 L 105.085938 152.652344 C 104.8125 152.175781 104.535156 151.703125 104.261719 151.234375 C 103.789062 150.4375 103.566406 149.589844 103.328125 148.726562 C 103.980469 149.132812 104.648438 149.527344 105.324219 149.910156 C 105.285156 150.074219 105.285156 150.253906 105.339844 150.398438 Z M 110.703125 152.675781 C 110.71875 153.417969 110.777344 154.148438 110.832031 154.886719 C 110.839844 155.035156 110.855469 155.171875 110.867188 155.308594 C 110.503906 154.777344 110.160156 154.242188 109.890625 153.644531 C 109.640625 153.085938 109.4375 152.484375 109.183594 151.921875 C 109.691406 152.167969 110.195312 152.402344 110.707031 152.636719 C 110.707031 152.652344 110.707031 152.660156 110.703125 152.675781 Z M 116.945312 159.15625 L 116.910156 159.121094 C 116.925781 159.113281 116.933594 159.113281 116.945312 159.105469 C 116.945312 159.136719 116.945312 159.15625 116.945312 159.15625 Z M 116.292969 157.488281 C 116.273438 157.464844 116.257812 157.445312 116.234375 157.421875 C 115.679688 156.707031 115.371094 155.964844 115.042969 155.136719 C 114.964844 154.929688 114.878906 154.671875 114.78125 154.40625 C 115.300781 154.621094 115.828125 154.839844 116.355469 155.050781 C 116.167969 155.835938 116.261719 156.683594 116.292969 157.488281 Z M 122.398438 159.980469 C 122.117188 159.582031 121.816406 159.195312 121.597656 158.753906 C 121.285156 158.121094 121.007812 157.46875 120.753906 156.804688 C 121.382812 157.050781 122.007812 157.304688 122.632812 157.550781 C 122.515625 158.289062 122.328125 159.183594 122.398438 159.980469 Z M 128.320312 160.507812 C 128.320312 160.519531 128.273438 160.867188 128.242188 161.058594 C 128.191406 161.324219 128.136719 161.589844 128.097656 161.859375 C 127.949219 161.59375 127.792969 161.335938 127.683594 161.097656 C 127.398438 160.492188 127.121094 159.886719 126.828125 159.289062 C 127.367188 159.519531 127.90625 159.757812 128.441406 160 C 128.351562 160.125 128.304688 160.296875 128.320312 160.507812 Z M 129.9375 167.972656 C 129.941406 167.984375 129.9375 167.992188 129.933594 168 L 129.929688 167.992188 Z M 125.722656 170.570312 C 125.746094 170.347656 125.777344 170.121094 125.796875 169.90625 L 125.878906 169.902344 C 126.019531 170.023438 126.152344 170.140625 126.246094 170.222656 C 126.59375 170.535156 126.933594 170.863281 127.292969 171.167969 C 126.734375 171.417969 126.164062 171.65625 125.59375 171.890625 C 125.625 171.449219 125.671875 171.007812 125.722656 170.570312 Z M 120.84375 172.292969 C 120.851562 172.175781 120.871094 172.058594 120.886719 171.9375 C 121.246094 172.382812 121.808594 172.84375 122.289062 173.210938 C 121.738281 173.445312 121.195312 173.691406 120.667969 173.953125 C 120.734375 173.402344 120.792969 172.847656 120.84375 172.292969 Z M 114.503906 175.390625 C 114.511719 175.03125 114.585938 174.691406 114.65625 174.347656 C 114.902344 174.710938 115.214844 175.046875 115.484375 175.359375 C 115.734375 175.652344 116.007812 175.933594 116.304688 176.179688 C 115.746094 176.488281 115.195312 176.808594 114.664062 177.164062 C 114.53125 176.585938 114.488281 175.988281 114.503906 175.390625 Z M 252.921875 212.019531 L 252.96875 212.097656 L 252.855469 212.023438 C 252.878906 212.023438 252.902344 212.019531 252.921875 212.019531 Z M 252.082031 200.65625 C 252.085938 200.671875 252.085938 200.679688 252.085938 200.691406 L 229.855469 187.660156 C 232.058594 187.828125 234.230469 187.992188 236.40625 188.425781 C 240.007812 189.144531 243.667969 190.484375 246.945312 192.132812 C 250.34375 193.835938 251.566406 197.066406 252.082031 200.65625 Z M 201.9375 202.78125 C 201.847656 202.589844 201.753906 202.398438 201.667969 202.203125 C 201.78125 202.246094 201.898438 202.28125 202.011719 202.316406 C 210.332031 204.941406 220.652344 207.476562 230.15625 207.773438 C 232.746094 208.023438 235.34375 208.160156 237.9375 208.164062 C 239.597656 208.160156 241.253906 208.109375 242.90625 208 C 243.316406 207.972656 243.765625 207.945312 244.226562 207.921875 C 244.269531 207.917969 244.308594 207.917969 244.351562 207.914062 C 244.46875 207.910156 244.578125 207.90625 244.695312 207.894531 C 244.808594 207.890625 244.925781 207.878906 245.042969 207.875 C 245.117188 207.871094 245.183594 207.867188 245.253906 207.863281 C 245.648438 207.835938 246.042969 207.800781 246.445312 207.761719 C 246.496094 207.757812 246.542969 207.75 246.59375 207.746094 C 246.742188 207.730469 246.890625 207.710938 247.039062 207.695312 C 247.105469 207.683594 247.171875 207.679688 247.234375 207.667969 C 247.375 207.652344 247.507812 207.628906 247.640625 207.613281 L 247.773438 207.589844 C 247.777344 207.589844 247.777344 207.589844 247.78125 207.589844 L 247.914062 207.566406 C 248.078125 207.535156 248.238281 207.503906 248.394531 207.476562 L 248.441406 207.46875 C 248.453125 207.464844 248.46875 207.464844 248.480469 207.457031 L 248.519531 207.449219 C 248.550781 207.445312 248.578125 207.4375 248.609375 207.429688 C 248.628906 207.425781 248.648438 207.421875 248.667969 207.417969 C 249 207.339844 249.320312 207.257812 249.636719 207.160156 L 249.75 207.121094 C 249.789062 207.113281 249.824219 207.097656 249.863281 207.082031 C 249.914062 207.0625 249.972656 207.050781 250.023438 207.03125 C 249.996094 207.058594 249.972656 207.085938 249.945312 207.121094 C 249.523438 207.738281 249.308594 208.5625 249.03125 209.253906 C 248.910156 209.5625 248.765625 209.867188 248.617188 210.171875 C 240.40625 210.230469 230.796875 213.070312 230.796875 213.070312 L 230.800781 213.070312 C 228.023438 213.683594 225.609375 214.417969 223.617188 215.132812 C 222.597656 215.425781 221.601562 215.769531 220.632812 216.171875 C 218.210938 217.042969 215.046875 218.410156 213.386719 219.136719 C 208.605469 214.46875 204.855469 208.867188 201.9375 202.78125 Z M 237.464844 235.757812 C 234.648438 234.648438 232.023438 233.367188 229.566406 231.957031 L 244.632812 230.277344 L 245.097656 232.496094 C 242.714844 233.71875 240.171875 234.816406 237.464844 235.757812 Z M 258.9375 222.816406 C 256.53125 225.027344 253.855469 227.15625 250.90625 229.101562 L 250.988281 228.503906 L 257.042969 217.957031 L 248.699219 226.113281 L 224.246094 228.519531 C 221.515625 226.542969 219.039062 224.417969 216.808594 222.21875 C 220.164062 220.597656 227.460938 217.28125 233.335938 216.074219 C 236.957031 215.515625 240.628906 215.457031 244.242188 214.890625 L 254.351562 214.472656 C 254.351562 214.472656 260.265625 214.3125 264.996094 217.410156 C 263.136719 219.363281 261.125 221.179688 258.9375 222.816406 Z M 282.304688 178.234375 C 282.347656 179.796875 282.296875 181.351562 282.136719 182.894531 C 282.125 182.992188 282.117188 183.085938 282.105469 183.183594 C 282.089844 183.242188 282.078125 183.304688 282.0625 183.359375 C 279.097656 195.386719 274.089844 207.375 265.863281 216.472656 C 264.816406 214.796875 262.742188 212.574219 258.6875 210.828125 C 261.195312 209.886719 263.777344 208.230469 265.609375 205.351562 C 265.609375 205.351562 260.363281 207.378906 254.878906 207.296875 C 254.878906 207.289062 254.882812 207.285156 254.886719 207.277344 C 254.9375 207.203125 254.984375 207.128906 255.035156 207.058594 C 255.054688 207.027344 255.074219 206.996094 255.09375 206.964844 C 255.160156 206.859375 255.222656 206.753906 255.289062 206.648438 C 255.296875 206.636719 255.304688 206.621094 255.308594 206.613281 C 255.390625 206.472656 255.472656 206.332031 255.550781 206.1875 C 255.5625 206.171875 255.566406 206.152344 255.578125 206.136719 C 255.65625 205.996094 255.734375 205.859375 255.804688 205.714844 C 255.808594 205.707031 255.808594 205.703125 255.8125 205.699219 C 255.824219 205.679688 255.832031 205.65625 255.84375 205.636719 C 255.859375 205.605469 255.875 205.574219 255.886719 205.542969 C 255.910156 205.507812 255.929688 205.464844 255.945312 205.425781 C 256.019531 205.269531 256.089844 205.113281 256.160156 204.957031 C 256.230469 204.800781 256.296875 204.632812 256.359375 204.472656 C 257.820312 200.699219 258.390625 196.175781 258.628906 192.167969 C 258.652344 191.824219 258.664062 191.480469 258.667969 191.136719 L 258.671875 191.128906 C 258.71875 188.308594 258.269531 185.519531 257.292969 182.976562 C 255.765625 177.011719 252.570312 169.371094 245.980469 165.816406 C 245.980469 165.816406 249.210938 169.574219 251.527344 175.894531 C 244.820312 171.0625 234.535156 168.625 224.632812 167.4375 C 222.601562 163.644531 218.371094 157.359375 210.984375 152.996094 C 211.128906 153.230469 215.921875 160.78125 217.921875 166.804688 C 217.816406 166.796875 217.703125 166.785156 217.597656 166.78125 C 216.691406 164.632812 215.371094 162.609375 213.910156 160.789062 C 205.855469 147.378906 195.945312 146.261719 192.125 146.386719 L 191.050781 136.980469 L 191.003906 136.039062 C 190.984375 136.035156 190.964844 136.03125 190.941406 136.027344 L 190.5625 132.710938 L 188.144531 144.964844 C 187.082031 144.792969 186.082031 144.984375 185.257812 145.285156 L 182.25 131.183594 L 181.136719 143.972656 C 180.078125 143.605469 178.964844 143.65625 178.027344 143.839844 L 175.402344 131.539062 L 173.722656 143.082031 C 171.832031 142.574219 170.085938 144.070312 170.085938 144.070312 C 167.066406 145.335938 161.996094 143.605469 160.546875 143.054688 C 157.503906 141.75 154.890625 140.179688 154.890625 140.179688 C 160.1875 148.878906 169.585938 147.347656 172.246094 146.707031 C 173.59375 149.640625 178.371094 161.5625 169.773438 167.316406 C 169.773438 167.316406 172.132812 167 174.425781 165.027344 C 175.105469 164.480469 175.78125 163.796875 176.390625 162.941406 C 177.605469 161.570312 178.210938 159.511719 178.488281 157.632812 C 178.488281 157.628906 178.488281 157.628906 178.488281 157.628906 C 178.515625 157.433594 178.542969 157.242188 178.5625 157.058594 C 178.738281 155.542969 178.734375 154.015625 178.628906 152.488281 C 178.550781 151.085938 178.363281 149.550781 178.042969 147.875 C 178.878906 147.269531 179.4375 147.058594 180.488281 147.429688 C 180.488281 147.429688 188.714844 157.882812 177.601562 166.042969 C 177.601562 166.042969 190.464844 164.21875 185.691406 149.339844 C 186.625 149.195312 187.539062 149.054688 188.519531 149.382812 C 188.53125 149.40625 188.550781 149.4375 188.566406 149.464844 C 189.941406 152.433594 192.152344 158.890625 187.894531 163.183594 C 187.808594 163.253906 187.722656 163.324219 187.632812 163.390625 C 187.644531 163.398438 187.652344 163.402344 187.660156 163.410156 C 187.1875 163.851562 186.652344 164.273438 186.023438 164.660156 C 186.023438 164.660156 198.941406 163.472656 192.503906 149.742188 C 192.753906 149.683594 193.039062 149.675781 193.34375 149.707031 L 194.066406 149.828125 C 195.304688 150.121094 196.660156 150.789062 197.277344 151.042969 C 199.070312 151.789062 200.808594 152.6875 202.398438 153.8125 C 205.101562 155.71875 207.050781 158.332031 208.394531 161.328125 C 209.117188 162.929688 209.527344 164.640625 209.804688 166.359375 C 209.808594 166.382812 209.8125 166.410156 209.820312 166.429688 C 207.972656 166.390625 206.242188 166.382812 204.679688 166.390625 C 200.046875 165.875 196.058594 166.664062 196.058594 166.664062 L 210.457031 177.601562 C 211.734375 178.710938 213.035156 179.796875 214.421875 180.78125 C 214.933594 181.144531 215.445312 181.503906 215.960938 181.859375 C 216.214844 182.042969 216.476562 182.21875 216.738281 182.398438 C 216.816406 182.449219 216.890625 182.5 216.96875 182.550781 C 217.003906 182.578125 217.039062 182.597656 217.074219 182.625 C 217.300781 182.777344 217.527344 182.929688 217.75 183.078125 L 212.789062 186.988281 L 221.515625 185.570312 C 221.691406 185.683594 221.863281 185.796875 222.039062 185.90625 C 222.3125 186.085938 222.585938 186.265625 222.867188 186.4375 C 223.046875 186.550781 223.238281 186.671875 223.425781 186.792969 C 223.765625 187.003906 224.109375 187.222656 224.449219 187.433594 C 224.75 187.621094 225.050781 187.8125 225.355469 188 C 225.90625 188.34375 226.460938 188.6875 227.019531 189.023438 C 227.191406 189.128906 227.355469 189.234375 227.527344 189.335938 L 223.878906 190.960938 C 223.679688 191.03125 223.488281 191.117188 223.304688 191.214844 L 220.789062 192.335938 L 236.351562 194.765625 L 232.898438 192.640625 C 232.902344 192.636719 232.910156 192.632812 232.914062 192.632812 C 234.0625 193.34375 235.207031 194.050781 236.351562 194.765625 C 236.46875 194.835938 236.585938 194.910156 236.695312 194.980469 C 237.917969 195.746094 239.136719 196.511719 240.34375 197.292969 C 242.382812 198.601562 244.367188 199.972656 246.453125 201.207031 C 247.574219 201.871094 248.867188 202.445312 249.996094 203.175781 L 250.605469 203.605469 C 250.679688 203.660156 250.753906 203.71875 250.824219 203.777344 C 242.734375 204.683594 228.988281 203.332031 221.265625 202.410156 C 214.109375 201.632812 196.667969 196.304688 196.632812 196.296875 C 195.8125 195.941406 194.992188 195.574219 194.179688 195.199219 C 193.46875 194.871094 192.769531 194.542969 192.070312 194.203125 C 189.507812 192.957031 186.996094 191.621094 184.542969 190.183594 C 183.164062 189.375 181.808594 188.542969 180.46875 187.671875 C 180.113281 187.4375 179.757812 187.203125 179.40625 186.964844 C 179.375 186.949219 179.347656 186.925781 179.316406 186.90625 C 179.308594 186.898438 179.300781 186.894531 179.292969 186.890625 C 178.867188 186.605469 178.445312 186.316406 178.023438 186.023438 C 177.925781 185.960938 177.832031 185.894531 177.742188 185.832031 C 177.316406 185.535156 176.894531 185.230469 176.46875 184.925781 C 176.417969 184.886719 176.367188 184.855469 176.320312 184.816406 C 175.914062 184.519531 175.511719 184.226562 175.113281 183.921875 C 175.109375 183.917969 175.109375 183.917969 175.105469 183.914062 C 174.59375 183.433594 174.082031 182.980469 173.65625 182.542969 C 171.902344 180.734375 170.796875 178.601562 169.378906 176.5625 C 169.332031 176.488281 169.210938 176.550781 169.222656 176.636719 C 169.253906 176.792969 169.296875 176.945312 169.335938 177.105469 L 169.320312 177.078125 C 169.320312 177.078125 164.914062 181.859375 167.734375 188.800781 C 167.40625 188.867188 167.074219 188.929688 166.75 188.980469 C 163.910156 189.398438 161.058594 189.742188 158.203125 190.042969 C 152.414062 190.648438 146.550781 191.121094 140.722656 191.054688 C 138.054688 191.023438 135.285156 190.90625 132.515625 190.621094 C 117.832031 188.914062 112.082031 181.117188 112.082031 181.117188 C 112.867188 180.109375 118.21875 177.585938 118.578125 177.417969 C 118.585938 177.410156 118.59375 177.410156 118.59375 177.410156 C 121.710938 175.746094 124.847656 174.246094 128.152344 172.957031 C 128.777344 172.714844 129.410156 172.417969 130.035156 172.097656 C 130.035156 172.097656 138.601562 168.734375 141.445312 162.894531 L 132.355469 159.46875 C 126.789062 156.570312 120.722656 154.5625 114.933594 152.1875 C 106.710938 148.808594 99.375 144.402344 93.253906 137.898438 C 93.039062 137.671875 92.828125 137.441406 92.613281 137.210938 L 82.777344 123.832031 C 82.429688 123.113281 82.09375 122.386719 81.800781 121.644531 C 80.847656 120.019531 80.007812 118.554688 79.375 117.425781 C 78.5625 115.996094 78.074219 115.101562 78.074219 115.101562 C 78.21875 114.996094 78.378906 114.902344 78.542969 114.816406 C 79.871094 115.003906 82.210938 115.355469 84.183594 115.746094 L 84.191406 115.757812 C 84.265625 115.765625 84.339844 115.78125 84.414062 115.792969 C 85.125 115.9375 85.78125 116.085938 86.3125 116.234375 L 92.90625 118.417969 C 93.679688 118.707031 94.449219 118.996094 95.207031 119.28125 C 97.890625 120.289062 100.480469 121.550781 103.027344 122.855469 C 103.289062 122.988281 103.550781 123.128906 103.8125 123.265625 C 103.8125 123.265625 103.816406 123.269531 103.820312 123.269531 C 104.351562 123.730469 104.925781 124.011719 105.476562 124.164062 C 106.191406 124.558594 106.902344 124.960938 107.617188 125.367188 C 107.730469 125.433594 107.867188 125.503906 108.007812 125.574219 C 108.171875 125.738281 108.378906 125.84375 108.644531 125.859375 C 108.792969 125.929688 108.949219 126 109.097656 126.078125 C 109.90625 126.933594 111.59375 128.585938 113.539062 129.683594 C 114.019531 130.0625 114.804688 130.589844 115.59375 130.894531 C 115.59375 130.894531 117.203125 131.125 118.992188 130.644531 C 118.996094 130.644531 118.996094 130.644531 119 130.644531 C 119.957031 130.386719 120.960938 129.929688 121.796875 129.117188 C 121.5625 129.691406 121.304688 130.257812 121.023438 130.789062 C 120.796875 131.214844 120.554688 131.609375 120.300781 131.953125 C 119.894531 132.515625 119.453125 132.941406 118.992188 133.132812 C 119.207031 133.050781 120.15625 132.671875 121.28125 132.019531 C 121.863281 131.675781 122.488281 131.265625 123.085938 130.78125 C 123.765625 130.230469 124.410156 129.589844 124.898438 128.859375 C 124.207031 130.855469 122.503906 133.175781 122.503906 133.175781 C 122.503906 133.175781 126.023438 132.09375 127.023438 129.332031 C 127.179688 129.046875 127.316406 128.753906 127.433594 128.4375 C 127.589844 129.085938 127.691406 129.828125 127.652344 130.585938 C 127.632812 130.898438 127.585938 131.214844 127.507812 131.527344 L 126.238281 133.703125 C 126.238281 133.703125 129.601562 132.472656 129.316406 128.730469 C 129.3125 128.6875 129.3125 128.652344 129.308594 128.613281 C 129.304688 128.5625 129.308594 128.511719 129.296875 128.460938 L 129.296875 128.46875 C 129.265625 128.175781 129.222656 127.878906 129.144531 127.570312 C 129.113281 127.441406 129.082031 127.316406 129.046875 127.1875 C 128.761719 126.226562 128.273438 125.230469 127.671875 124.355469 L 127.675781 124.355469 C 125.480469 118.714844 112.753906 122.519531 112.695312 122.535156 C 112.183594 122.605469 111.664062 122.664062 111.140625 122.703125 C 110.574219 122.902344 109.96875 122.972656 109.34375 122.929688 C 108.484375 122.867188 107.574219 122.496094 106.875 122.007812 C 106.570312 121.789062 106.261719 121.539062 106.003906 121.25 C 105.988281 121.230469 105.972656 121.214844 105.953125 121.191406 C 105.863281 121.089844 105.785156 120.984375 105.710938 120.867188 C 105.652344 120.796875 105.59375 120.71875 105.542969 120.644531 C 105.511719 120.609375 105.488281 120.574219 105.464844 120.535156 C 105.414062 120.457031 105.367188 120.378906 105.320312 120.300781 C 105.265625 120.207031 105.21875 120.105469 105.167969 120 C 105.125 119.902344 105.082031 119.792969 105.039062 119.691406 C 104.992188 119.566406 104.953125 119.4375 104.917969 119.308594 C 104.175781 117.769531 103.667969 116.019531 104.296875 114.820312 C 104.191406 114.957031 102.847656 116.703125 102.40625 118.734375 C 98.359375 116.753906 92.714844 114.902344 88.796875 113.726562 C 99.613281 113.433594 115.714844 113.789062 130.25 114.273438 C 141.8125 114.996094 153.347656 115.886719 164.890625 117.027344 C 167.042969 117.242188 169.1875 117.449219 171.335938 117.660156 C 183.386719 118.863281 195.363281 120.191406 207.207031 122.933594 C 207.210938 122.933594 207.210938 122.9375 207.214844 122.9375 C 207.480469 123 207.746094 123.058594 208.007812 123.117188 C 212.496094 124.15625 217.023438 125.171875 221.535156 126.277344 C 221.722656 126.320312 221.917969 126.367188 222.109375 126.417969 C 230.535156 128.496094 238.898438 130.90625 246.800781 134.375 C 252.613281 136.921875 258.320312 140.136719 263.40625 144.082031 C 263.410156 144.085938 263.410156 144.085938 263.414062 144.085938 C 269.929688 149.144531 275.433594 155.398438 278.835938 162.996094 C 279.230469 163.875 279.59375 164.78125 279.925781 165.695312 C 280.035156 166.441406 280.242188 167.125 280.589844 167.703125 C 281.625 171.105469 282.214844 174.671875 282.304688 178.234375 Z M 179.371094 145.550781 C 179.199219 145.582031 179.027344 145.625 178.859375 145.683594 C 179.058594 145.582031 179.222656 145.546875 179.371094 145.550781 Z M 130.808594 168.359375 C 130.804688 168.277344 130.800781 168.203125 130.800781 168.121094 C 130.808594 167.773438 130.851562 167.429688 130.882812 167.089844 C 131.113281 167.324219 131.402344 167.527344 131.613281 167.699219 C 131.820312 167.875 132.023438 168.070312 132.238281 168.253906 C 131.75 168.554688 131.277344 168.84375 130.851562 169.109375 C 130.839844 168.96875 130.824219 168.824219 130.820312 168.679688 C 130.90625 168.550781 130.886719 168.445312 130.808594 168.359375 Z M 112.742188 124.53125 C 114.515625 124.34375 116.273438 123.941406 118.042969 123.757812 C 118.082031 123.757812 118.117188 123.753906 118.152344 123.753906 C 118.21875 124.074219 118.335938 124.402344 118.414062 124.726562 C 118.425781 125.070312 118.332031 125.410156 118.121094 125.75 C 117.941406 126.042969 117.683594 126.234375 117.453125 126.445312 L 116.066406 126.851562 C 116.023438 126.855469 115.972656 126.855469 115.925781 126.851562 C 114.207031 126.828125 113.59375 125.640625 112.742188 124.53125 Z M 284.441406 163.964844 C 283.027344 160.917969 281.296875 158.171875 279.453125 155.734375 C 270.625 139.445312 247.917969 128.941406 228.855469 122.722656 C 235.414062 118.832031 239.949219 115.316406 239.949219 115.316406 C 239.949219 115.316406 243.683594 118.460938 249.28125 122.210938 C 254.878906 125.953125 262.339844 130.300781 269.796875 132.695312 L 269.800781 132.695312 C 271.597656 133.269531 273.394531 133.738281 275.164062 134.054688 C 276.375 134.316406 277.714844 134.570312 279.097656 134.78125 C 280.222656 135.074219 281.351562 135.28125 282.023438 135.195312 C 282.742188 135.261719 283.515625 135.304688 284.3125 135.308594 C 284.535156 139.085938 285.335938 154.300781 284.441406 163.964844 Z M 98.476562 125.21875 C 98.710938 126.292969 98.601562 127.066406 98.601562 127.066406 L 95.398438 124.039062 L 95.398438 124.035156 C 94.765625 123.964844 94.113281 123.804688 93.65625 123.429688 C 92.867188 122.785156 92.675781 121.339844 93.78125 120.832031 C 94.929688 120.308594 96.488281 121.605469 97.144531 122.429688 C 97.636719 123.046875 98.546875 124.265625 98.476562 125.21875 Z M 98.476562 125.21875 " fill-opacity="1" fill-rule="nonzero"/></g></g></g><g clip-path="url(#id7)"><g clip-path="url(#id8)"><g clip-path="url(#id9)"><path fill="#f4f6fc" d="M 78.542969 114.816406 L 97.933594 142.289062 C 86.667969 137.117188 76.648438 114.273438 76.648438 114.273438 Z M 232.027344 216.371094 L 264.996094 217.410156 C 264.996094 217.410156 256.394531 210.027344 232.027344 216.371094 Z M 232.027344 216.371094 " fill-opacity="1" fill-rule="nonzero"/></g></g></g><g fill="#050a30" fill-opacity="1"><g transform="translate(66.308601, 298.175606)"><g><path d="M 21.574219 -9.421875 C 19.628906 -9.558594 16.605469 -9.558594 14.605469 -9.421875 C 14.390625 -7.910156 14.203125 -6.265625 14.066406 -4.617188 L 10.933594 -4.617188 L 10.933594 -12.796875 L 13.390625 -12.796875 C 13.6875 -14.230469 13.851562 -16.09375 13.824219 -17.710938 C 10.71875 -17.847656 4.050781 -17.847656 0.945312 -17.710938 C 0.648438 -16.226562 0.539062 -14.445312 0.484375 -12.796875 L 2.539062 -12.796875 L 2.539062 -4.941406 L 0.890625 -4.941406 C 0.621094 -3.402344 0.511719 -1.59375 0.433594 0 C 2.941406 0.160156 18.765625 0.160156 21.574219 0 C 21.679688 -3.050781 21.679688 -6.371094 21.574219 -9.421875 Z M 21.574219 -9.421875 "/></g></g></g><g fill="#050a30" fill-opacity="1"><g transform="translate(89.177615, 298.175606)"><g><path d="M 0.539062 -8.503906 C 0.539062 -1.808594 3.457031 0.539062 12.285156 0.539062 C 21.167969 0.539062 24.382812 -1.78125 24.382812 -9.476562 C 24.382812 -15.957031 21.03125 -18.253906 12.824219 -18.253906 C 3.699219 -18.253906 0.539062 -15.984375 0.539062 -8.503906 Z M 15.09375 -8.910156 C 15.09375 -6.480469 14.714844 -5.238281 12.445312 -5.238281 C 10.285156 -5.238281 9.855469 -6.425781 9.855469 -8.992188 C 9.855469 -11.257812 10.152344 -12.554688 12.554688 -12.554688 C 14.769531 -12.554688 15.09375 -11.285156 15.09375 -8.910156 Z M 15.09375 -8.910156 "/></g></g></g><g fill="#050a30" fill-opacity="1"><g transform="translate(114.773629, 298.175606)"><g><path d="M 25.21875 -4.941406 L 19.738281 -17.710938 C 17.117188 -18.0625 9.773438 -18.0625 7.828125 -17.710938 L 2.214844 -4.941406 L 0.675781 -4.941406 C 0.378906 -3.511719 0.214844 -1.621094 0.242188 0 C 3.347656 0.136719 7.910156 0.136719 11.015625 0 C 11.3125 -1.484375 11.449219 -3.078125 11.449219 -4.671875 L 8.992188 -4.671875 L 9.585938 -6.101562 L 15.28125 -6.101562 L 15.875 -4.671875 L 13.527344 -4.671875 C 13.285156 -3.238281 13.148438 -1.539062 13.175781 0 C 16.253906 0.136719 23.4375 0.136719 26.515625 0 C 26.8125 -1.484375 26.945312 -3.238281 26.945312 -4.941406 Z M 10.828125 -9.152344 L 12.257812 -12.664062 L 12.554688 -12.664062 L 14.011719 -9.152344 Z M 10.828125 -9.152344 "/></g></g></g><g fill="#050a30" fill-opacity="1"><g transform="translate(142.637644, 298.175606)"><g><path d="M 27.917969 -17.710938 C 24.8125 -17.847656 20.601562 -17.847656 17.496094 -17.710938 C 17.199219 -16.226562 17.089844 -14.445312 17.0625 -12.769531 L 19.46875 -12.769531 L 19.46875 -8.476562 L 19.195312 -8.476562 L 12.339844 -17.710938 C 9.234375 -17.847656 3.996094 -17.847656 0.890625 -17.710938 C 0.59375 -16.226562 0.484375 -14.417969 0.433594 -12.769531 L 2.511719 -12.769531 L 2.511719 -4.941406 L 0.863281 -4.941406 C 0.59375 -3.402344 0.460938 -1.621094 0.433594 0 C 2.941406 0.160156 8.128906 0.160156 10.933594 0 C 11.230469 -1.429688 11.339844 -3.320312 11.3125 -4.941406 L 8.992188 -4.941406 L 8.992188 -8.992188 L 9.234375 -8.992188 L 15.660156 0 C 19.035156 0.214844 22.625 0.214844 25.945312 0 L 25.945312 -12.769531 L 27.484375 -12.769531 C 27.78125 -14.203125 27.945312 -16.09375 27.917969 -17.710938 Z M 27.917969 -17.710938 "/></g></g></g><g fill="#050a30" fill-opacity="1"><g transform="translate(171.473664, 298.175606)"><g/></g></g><g fill="#050a30" fill-opacity="1"><g transform="translate(177.548668, 298.175606)"><g><path d="M 13.609375 -10.394531 C 10.773438 -10.773438 9.421875 -10.960938 9.421875 -11.746094 C 9.421875 -12.421875 9.855469 -12.71875 12.121094 -12.71875 C 12.851562 -12.71875 13.417969 -12.664062 14.011719 -12.554688 L 14.011719 -10.960938 C 16.066406 -10.828125 18.792969 -10.800781 20.871094 -10.960938 C 21.304688 -12.742188 21.410156 -15.820312 21.410156 -17.496094 C 19.574219 -17.820312 16.820312 -18.253906 12.394531 -18.253906 C 2.808594 -18.253906 0.675781 -16.441406 0.675781 -12.445312 C 0.675781 -9.019531 3.214844 -8.128906 7.53125 -7.53125 C 11.3125 -7.019531 13.121094 -6.964844 13.121094 -5.804688 C 13.121094 -4.996094 12.3125 -4.832031 10.882812 -4.832031 C 9.855469 -4.832031 9.019531 -4.859375 8.179688 -5.023438 L 8.179688 -6.667969 C 6.480469 -6.804688 3.023438 -6.804688 1.214844 -6.667969 C 0.863281 -4.804688 0.703125 -2.753906 0.675781 -0.269531 C 3.238281 0.242188 5.859375 0.539062 10.664062 0.539062 C 18.871094 0.539062 21.898438 -0.730469 21.898438 -5.183594 C 21.898438 -9.046875 19.304688 -9.613281 13.609375 -10.394531 Z M 13.609375 -10.394531 "/></g></g></g><g fill="#050a30" fill-opacity="1"><g transform="translate(200.417682, 298.175606)"><g><path d="M 24.570312 -4.941406 L 24.570312 -12.769531 L 26.21875 -12.769531 C 26.515625 -14.203125 26.675781 -16.09375 26.648438 -17.710938 C 23.488281 -17.847656 17.875 -17.847656 14.714844 -17.710938 C 14.417969 -16.226562 14.308594 -14.417969 14.257812 -12.769531 L 16.171875 -12.769531 L 16.171875 -10.773438 L 10.933594 -10.773438 L 10.933594 -12.769531 L 12.691406 -12.769531 C 12.988281 -14.203125 13.148438 -16.09375 13.121094 -17.710938 C 9.9375 -17.847656 4.105469 -17.847656 0.890625 -17.710938 C 0.59375 -16.226562 0.484375 -14.417969 0.433594 -12.769531 L 2.539062 -12.769531 L 2.539062 -4.941406 L 0.890625 -4.941406 C 0.621094 -3.402344 0.511719 -1.59375 0.433594 0 C 2.996094 0.160156 9.640625 0.160156 12.527344 0 C 12.824219 -1.429688 12.988281 -3.320312 12.960938 -4.941406 L 10.933594 -4.941406 L 10.933594 -7.183594 L 16.171875 -7.183594 L 16.171875 -4.941406 L 14.554688 -4.941406 C 14.28125 -3.402344 14.175781 -1.59375 14.09375 0 C 16.660156 0.160156 23.191406 0.160156 26.054688 0 C 26.351562 -1.429688 26.515625 -3.320312 26.488281 -4.941406 Z M 24.570312 -4.941406 "/></g></g></g><g fill="#050a30" fill-opacity="1"><g transform="translate(228.1737, 298.175606)"><g><path d="M 25.21875 -4.941406 L 19.738281 -17.710938 C 17.117188 -18.0625 9.773438 -18.0625 7.828125 -17.710938 L 2.214844 -4.941406 L 0.675781 -4.941406 C 0.378906 -3.511719 0.214844 -1.621094 0.242188 0 C 3.347656 0.136719 7.910156 0.136719 11.015625 0 C 11.3125 -1.484375 11.449219 -3.078125 11.449219 -4.671875 L 8.992188 -4.671875 L 9.585938 -6.101562 L 15.28125 -6.101562 L 15.875 -4.671875 L 13.527344 -4.671875 C 13.285156 -3.238281 13.148438 -1.539062 13.175781 0 C 16.253906 0.136719 23.4375 0.136719 26.515625 0 C 26.8125 -1.484375 26.945312 -3.238281 26.945312 -4.941406 Z M 10.828125 -9.152344 L 12.257812 -12.664062 L 12.554688 -12.664062 L 14.011719 -9.152344 Z M 10.828125 -9.152344 "/></g></g></g><g fill="#050a30" fill-opacity="1"><g transform="translate(256.037715, 298.175606)"><g><path d="M 19.953125 -7.964844 C 22.195312 -8.585938 23.652344 -9.9375 23.652344 -12.664062 C 23.652344 -16.714844 21.707031 -17.847656 11.824219 -17.847656 C 6.5625 -17.847656 3.1875 -17.820312 0.808594 -17.710938 C 0.511719 -16.226562 0.40625 -14.417969 0.351562 -12.769531 L 2.539062 -12.769531 L 2.539062 -4.941406 L 0.890625 -4.941406 C 0.621094 -3.402344 0.511719 -1.59375 0.433594 0 C 2.914062 0.160156 9.449219 0.160156 12.230469 0 C 12.527344 -1.429688 12.636719 -2.835938 12.609375 -4.453125 L 10.933594 -4.453125 L 10.933594 -6.425781 L 12.148438 -6.425781 C 14.6875 -0.351562 16.117188 0.324219 20.980469 0.324219 C 22.355469 0.324219 23.382812 0.109375 24.03125 -0.0546875 C 24.355469 -1.621094 24.433594 -3.265625 24.433594 -4.886719 C 22.140625 -5.15625 21.25 -6.265625 19.953125 -7.964844 Z M 10.933594 -12.769531 L 12.394531 -12.769531 C 14.714844 -12.769531 15.039062 -12.421875 15.039062 -11.449219 C 15.039062 -10.070312 14.554688 -9.613281 12.097656 -9.613281 L 10.933594 -9.613281 Z M 10.933594 -12.769531 "/></g></g></g><g fill="#050a30" fill-opacity="1"><g transform="translate(281.579736, 298.175606)"><g><path d="M 24.433594 -4.941406 C 23.140625 -6.5625 21.84375 -8.101562 20.519531 -9.53125 L 24.058594 -12.769531 L 26.242188 -12.769531 C 26.539062 -14.203125 26.703125 -16.09375 26.675781 -17.710938 C 23.515625 -17.847656 17.820312 -17.847656 14.632812 -17.710938 C 14.335938 -16.226562 14.230469 -14.417969 14.175781 -12.769531 L 16.523438 -12.769531 L 13.933594 -10.394531 L 10.933594 -10.394531 L 10.933594 -12.769531 L 12.609375 -12.769531 C 12.90625 -14.203125 13.066406 -16.09375 13.039062 -17.710938 C 9.855469 -17.847656 4.15625 -17.847656 0.972656 -17.710938 C 0.675781 -16.226562 0.566406 -14.417969 0.511719 -12.769531 L 2.539062 -12.769531 L 2.539062 -4.941406 L 0.890625 -4.941406 C 0.621094 -3.402344 0.511719 -1.59375 0.433594 0 C 2.996094 0.160156 9.585938 0.160156 12.445312 0 C 12.742188 -1.429688 12.90625 -3.023438 12.878906 -4.644531 L 10.933594 -4.644531 L 10.933594 -6.910156 L 12.015625 -6.910156 C 13.5 -4.507812 15.199219 -2.242188 16.820312 0 C 18.765625 0.136719 24.109375 0.136719 26.242188 0 C 26.515625 -1.429688 26.648438 -3.320312 26.621094 -4.941406 Z M 24.433594 -4.941406 "/></g></g></g><g fill="#050a30" fill-opacity="1"><g transform="translate(37.500002, 329.428543)"><g><path d="M 0.28125 0 L 2.71875 0 L 3.816406 -3.066406 L 9.523438 -3.066406 L 10.613281 0 L 13.03125 0 L 7.515625 -14.121094 L 5.828125 -14.121094 Z M 4.578125 -5.015625 L 6.675781 -10.832031 L 8.773438 -5.015625 Z M 4.578125 -5.015625 "/></g></g></g><g fill="#050a30" fill-opacity="1"><g transform="translate(50.807603, 329.428543)"><g/></g></g><g fill="#050a30" fill-opacity="1"><g transform="translate(55.872884, 329.428543)"><g><path d="M 5.046875 0.199219 C 8.40625 0.199219 9.675781 -2.019531 9.675781 -5.066406 L 9.675781 -14.121094 L 2.109375 -14.121094 L 2.109375 -12.09375 L 7.433594 -12.09375 L 7.433594 -4.988281 C 7.433594 -3.097656 7.027344 -1.847656 5.046875 -1.847656 C 3.429688 -1.847656 2.738281 -3.109375 2.636719 -4.527344 L 0.441406 -4.257812 C 0.609375 -1.828125 2.25 0.199219 5.046875 0.199219 Z M 5.046875 0.199219 "/></g></g></g><g fill="#050a30" fill-opacity="1"><g transform="translate(67.192337, 329.428543)"><g><path d="M 4.128906 0.199219 C 5.386719 0.199219 6.535156 -0.261719 7.355469 -1.589844 L 7.484375 0 L 9.253906 0 L 9.253906 -6.078125 C 9.253906 -8.515625 7.734375 -10.195312 5.066406 -10.195312 C 3.199219 -10.195312 1.949219 -9.363281 1 -8.074219 L 2.628906 -6.886719 C 3.066406 -7.605469 3.878906 -8.324219 5.105469 -8.324219 C 6.554688 -8.324219 7.226562 -7.335938 7.226562 -5.875 L 4.726562 -5.875 C 2.296875 -5.875 0.621094 -5.097656 0.621094 -2.976562 C 0.621094 -0.960938 2.128906 0.199219 4.128906 0.199219 Z M 4.417969 -1.609375 C 3.449219 -1.609375 2.816406 -2.089844 2.816406 -2.910156 C 2.816406 -3.757812 3.488281 -4.316406 4.867188 -4.316406 L 7.226562 -4.316406 C 7.195312 -2.949219 6.015625 -1.609375 4.417969 -1.609375 Z M 4.417969 -1.609375 "/></g></g></g><g fill="#050a30" fill-opacity="1"><g transform="translate(77.682563, 329.428543)"><g><path d="M 4.015625 0 L 5.816406 0 L 9.773438 -9.984375 L 7.457031 -9.984375 L 4.917969 -2.777344 L 2.398438 -9.984375 L 0.0585938 -9.984375 Z M 4.015625 0 "/></g></g></g><g fill="#050a30" fill-opacity="1"><g transform="translate(87.513403, 329.428543)"><g><path d="M 4.128906 0.199219 C 5.386719 0.199219 6.535156 -0.261719 7.355469 -1.589844 L 7.484375 0 L 9.253906 0 L 9.253906 -6.078125 C 9.253906 -8.515625 7.734375 -10.195312 5.066406 -10.195312 C 3.199219 -10.195312 1.949219 -9.363281 1 -8.074219 L 2.628906 -6.886719 C 3.066406 -7.605469 3.878906 -8.324219 5.105469 -8.324219 C 6.554688 -8.324219 7.226562 -7.335938 7.226562 -5.875 L 4.726562 -5.875 C 2.296875 -5.875 0.621094 -5.097656 0.621094 -2.976562 C 0.621094 -0.960938 2.128906 0.199219 4.128906 0.199219 Z M 4.417969 -1.609375 C 3.449219 -1.609375 2.816406 -2.089844 2.816406 -2.910156 C 2.816406 -3.757812 3.488281 -4.316406 4.867188 -4.316406 L 7.226562 -4.316406 C 7.195312 -2.949219 6.015625 -1.609375 4.417969 -1.609375 Z M 4.417969 -1.609375 "/></g></g></g><g fill="#050a30" fill-opacity="1"><g transform="translate(98.00363, 329.428543)"><g><path d="M 5.804688 0.160156 C 8.445312 0.160156 10.5625 -1.4375 10.5625 -4.046875 C 10.5625 -8.695312 3.738281 -7.84375 3.738281 -10.664062 C 3.738281 -11.683594 4.605469 -12.351562 5.667969 -12.351562 C 6.664062 -12.351562 7.574219 -11.8125 8.085938 -10.804688 L 9.914062 -11.933594 C 8.972656 -13.589844 7.445312 -14.332031 5.726562 -14.332031 C 3.449219 -14.332031 1.507812 -12.933594 1.507812 -10.535156 C 1.507812 -6.027344 8.335938 -7.003906 8.335938 -3.859375 C 8.335938 -2.628906 7.40625 -1.828125 5.835938 -1.828125 C 4.289062 -1.828125 2.949219 -2.636719 2.757812 -4.449219 L 0.570312 -3.878906 C 1 -1.167969 3.367188 0.160156 5.804688 0.160156 Z M 5.804688 0.160156 "/></g></g></g><g fill="#050a30" fill-opacity="1"><g transform="translate(109.27313, 329.428543)"><g><path d="M 5.355469 0.199219 C 7.285156 0.199219 8.785156 -0.871094 9.414062 -2.667969 L 7.496094 -3.417969 C 7.214844 -2.398438 6.386719 -1.707031 5.335938 -1.707031 C 3.519531 -1.707031 2.859375 -3.359375 2.859375 -4.976562 C 2.859375 -6.566406 3.539062 -8.273438 5.335938 -8.273438 C 6.40625 -8.273438 7.214844 -7.566406 7.496094 -6.527344 L 9.523438 -7.335938 C 8.785156 -9.214844 7.265625 -10.195312 5.335938 -10.195312 C 2.199219 -10.195312 0.679688 -7.617188 0.679688 -4.976562 C 0.679688 -2.308594 2.21875 0.199219 5.355469 0.199219 Z M 5.355469 0.199219 "/></g></g></g><g fill="#050a30" fill-opacity="1"><g transform="translate(119.203877, 329.428543)"><g><path d="M 1.527344 0 L 3.597656 0 L 3.597656 -4.457031 C 3.597656 -6.957031 4.738281 -8.113281 6.054688 -8.113281 C 6.476562 -8.113281 6.855469 -7.996094 7.1875 -7.753906 L 8.144531 -9.535156 C 7.707031 -9.964844 7.054688 -10.195312 6.386719 -10.195312 C 5.21875 -10.195312 4.078125 -9.496094 3.617188 -8.273438 L 3.617188 -9.984375 L 1.527344 -9.984375 Z M 1.527344 0 "/></g></g></g><g fill="#050a30" fill-opacity="1"><g transform="translate(127.286346, 329.428543)"><g><path d="M 1.449219 -11.972656 L 3.726562 -11.972656 L 3.726562 -14.121094 L 1.449219 -14.121094 Z M 1.527344 0 L 3.65625 0 L 3.65625 -9.984375 L 1.527344 -9.984375 Z M 1.527344 0 "/></g></g></g><g fill="#050a30" fill-opacity="1"><g transform="translate(132.471515, 329.428543)"><g><path d="M 1.550781 4.378906 L 3.71875 4.378906 L 3.71875 -1.121094 C 4.40625 -0.210938 5.507812 0.199219 6.625 0.199219 C 9.363281 0.199219 10.832031 -2.207031 10.832031 -4.996094 C 10.832031 -7.804688 9.355469 -10.195312 6.597656 -10.195312 C 5.445312 -10.195312 4.398438 -9.765625 3.71875 -8.875 L 3.71875 -9.984375 L 1.550781 -9.984375 Z M 6.085938 -1.738281 C 4.308594 -1.738281 3.519531 -3.207031 3.519531 -4.996094 C 3.519531 -6.777344 4.308594 -8.296875 6.085938 -8.296875 C 7.863281 -8.296875 8.664062 -6.777344 8.664062 -4.996094 C 8.664062 -3.207031 7.863281 -1.738281 6.085938 -1.738281 Z M 6.085938 -1.738281 "/></g></g></g><g fill="#050a30" fill-opacity="1"><g transform="translate(144.040736, 329.428543)"><g><path d="M 4.828125 0.199219 C 5.496094 0.199219 6.15625 0.0585938 6.484375 -0.0703125 L 6.484375 -1.988281 C 6.15625 -1.828125 5.667969 -1.660156 5.21875 -1.660156 C 4.546875 -1.660156 4.039062 -2.019531 4.039062 -3.019531 L 4.039062 -8.195312 L 6.566406 -8.195312 L 6.566406 -9.984375 L 4.039062 -9.984375 L 4.039062 -14.019531 L 1.949219 -12.390625 L 1.949219 -9.984375 L 0.308594 -9.984375 L 0.308594 -8.195312 L 1.917969 -8.195312 L 1.917969 -2.726562 C 1.917969 -0.9375 2.917969 0.199219 4.828125 0.199219 Z M 4.828125 0.199219 "/></g></g></g><g fill="#050a30" fill-opacity="1"><g transform="translate(151.32395, 329.428543)"><g/></g></g><g fill="#050a30" fill-opacity="1"><g transform="translate(156.389231, 329.428543)"><g><path d="M 1.910156 0 L 4.136719 0 L 4.136719 -6.015625 L 6.195312 -6.015625 C 9.035156 -6.015625 11.035156 -7.433594 11.035156 -10.035156 C 11.035156 -12.621094 9.035156 -14.121094 6.195312 -14.121094 L 1.910156 -14.121094 Z M 4.136719 -8.085938 L 4.136719 -12.050781 L 6.195312 -12.050781 C 7.964844 -12.050781 8.816406 -11.3125 8.816406 -10.035156 C 8.816406 -8.753906 7.976562 -8.085938 6.195312 -8.085938 Z M 4.136719 -8.085938 "/></g></g></g><g fill="#050a30" fill-opacity="1"><g transform="translate(167.988423, 329.428543)"><g><path d="M 1.527344 0 L 3.597656 0 L 3.597656 -4.457031 C 3.597656 -6.957031 4.738281 -8.113281 6.054688 -8.113281 C 6.476562 -8.113281 6.855469 -7.996094 7.1875 -7.753906 L 8.144531 -9.535156 C 7.707031 -9.964844 7.054688 -10.195312 6.386719 -10.195312 C 5.21875 -10.195312 4.078125 -9.496094 3.617188 -8.273438 L 3.617188 -9.984375 L 1.527344 -9.984375 Z M 1.527344 0 "/></g></g></g><g fill="#050a30" fill-opacity="1"><g transform="translate(176.070893, 329.428543)"><g><path d="M 5.605469 0.199219 C 8.613281 0.199219 10.613281 -2.1875 10.613281 -5.015625 C 10.613281 -7.84375 8.613281 -10.195312 5.605469 -10.195312 C 2.609375 -10.195312 0.621094 -7.84375 0.621094 -5.015625 C 0.621094 -2.1875 2.609375 0.199219 5.605469 0.199219 Z M 5.617188 -1.628906 C 3.65625 -1.628906 2.839844 -3.257812 2.839844 -5.015625 C 2.839844 -6.765625 3.65625 -8.355469 5.617188 -8.355469 C 7.574219 -8.355469 8.394531 -6.765625 8.394531 -5.015625 C 8.394531 -3.269531 7.574219 -1.628906 5.617188 -1.628906 Z M 5.617188 -1.628906 "/></g></g></g><g fill="#050a30" fill-opacity="1"><g transform="translate(187.310421, 329.428543)"><g><path d="M 5.785156 -1.46875 C 4.117188 -1.6875 2.878906 -1.800781 2.878906 -2.679688 C 2.878906 -2.9375 3 -3.128906 3.21875 -3.277344 C 3.777344 -3.027344 4.417969 -2.886719 5.105469 -2.886719 C 7.265625 -2.886719 9.042969 -4.257812 9.042969 -6.464844 C 9.042969 -7.09375 8.894531 -7.664062 8.632812 -8.164062 L 10.132812 -9.363281 L 9.003906 -10.773438 L 7.496094 -9.453125 C 6.816406 -9.914062 5.976562 -10.171875 5.046875 -10.171875 C 2.878906 -10.171875 1.070312 -8.714844 1.070312 -6.554688 C 1.070312 -5.667969 1.378906 -4.878906 1.898438 -4.265625 C 1.320312 -3.757812 1.03125 -3.136719 1.03125 -2.328125 C 1.03125 -1.347656 1.46875 -0.730469 2.109375 -0.328125 L 0.9375 0.757812 C 0.917969 0.871094 0.898438 0.980469 0.898438 1.167969 C 0.898438 3.167969 2.617188 4.675781 5.457031 4.675781 C 7.816406 4.675781 9.742188 3.628906 9.742188 1.4375 C 9.742188 -0.839844 7.714844 -1.21875 5.785156 -1.46875 Z M 5.097656 -8.503906 C 6.257812 -8.503906 6.914062 -7.664062 6.914062 -6.554688 C 6.914062 -5.425781 6.265625 -4.636719 5.097656 -4.636719 C 3.9375 -4.636719 3.277344 -5.425781 3.277344 -6.554688 C 3.277344 -7.65625 3.949219 -8.503906 5.097656 -8.503906 Z M 5.507812 2.949219 C 3.917969 2.949219 2.839844 2.277344 2.738281 1.21875 L 3.449219 0.191406 C 3.976562 0.320312 4.546875 0.390625 5.058594 0.460938 C 6.675781 0.679688 7.734375 0.757812 7.734375 1.667969 C 7.734375 2.5 6.785156 2.949219 5.507812 2.949219 Z M 5.507812 2.949219 "/></g></g></g><g fill="#050a30" fill-opacity="1"><g transform="translate(197.710731, 329.428543)"><g><path d="M 1.527344 0 L 3.597656 0 L 3.597656 -4.457031 C 3.597656 -6.957031 4.738281 -8.113281 6.054688 -8.113281 C 6.476562 -8.113281 6.855469 -7.996094 7.1875 -7.753906 L 8.144531 -9.535156 C 7.707031 -9.964844 7.054688 -10.195312 6.386719 -10.195312 C 5.21875 -10.195312 4.078125 -9.496094 3.617188 -8.273438 L 3.617188 -9.984375 L 1.527344 -9.984375 Z M 1.527344 0 "/></g></g></g><g fill="#050a30" fill-opacity="1"><g transform="translate(205.7932, 329.428543)"><g><path d="M 4.128906 0.199219 C 5.386719 0.199219 6.535156 -0.261719 7.355469 -1.589844 L 7.484375 0 L 9.253906 0 L 9.253906 -6.078125 C 9.253906 -8.515625 7.734375 -10.195312 5.066406 -10.195312 C 3.199219 -10.195312 1.949219 -9.363281 1 -8.074219 L 2.628906 -6.886719 C 3.066406 -7.605469 3.878906 -8.324219 5.105469 -8.324219 C 6.554688 -8.324219 7.226562 -7.335938 7.226562 -5.875 L 4.726562 -5.875 C 2.296875 -5.875 0.621094 -5.097656 0.621094 -2.976562 C 0.621094 -0.960938 2.128906 0.199219 4.128906 0.199219 Z M 4.417969 -1.609375 C 3.449219 -1.609375 2.816406 -2.089844 2.816406 -2.910156 C 2.816406 -3.757812 3.488281 -4.316406 4.867188 -4.316406 L 7.226562 -4.316406 C 7.195312 -2.949219 6.015625 -1.609375 4.417969 -1.609375 Z M 4.417969 -1.609375 "/></g></g></g><g fill="#050a30" fill-opacity="1"><g transform="translate(216.283426, 329.428543)"><g><path d="M 1.527344 0 L 3.6875 0 L 3.6875 -5.398438 C 3.6875 -6.875 4.496094 -8.234375 5.925781 -8.234375 C 7.324219 -8.234375 7.664062 -7.066406 7.664062 -5.804688 L 7.664062 0 L 9.84375 0 L 9.84375 -5.496094 C 9.84375 -6.925781 10.652344 -8.234375 12.074219 -8.234375 C 13.480469 -8.234375 13.851562 -7.027344 13.851562 -5.765625 L 13.851562 0 L 16.03125 0 L 16.03125 -6.015625 C 16.03125 -8.164062 14.941406 -10.195312 12.414062 -10.195312 C 11.082031 -10.195312 9.894531 -9.59375 9.15625 -8.335938 C 8.554688 -9.59375 7.546875 -10.195312 6.277344 -10.195312 C 5.238281 -10.195312 4.257812 -9.703125 3.6875 -8.785156 L 3.6875 -9.984375 L 1.527344 -9.984375 Z M 1.527344 0 "/></g></g></g><g fill="#050a30" fill-opacity="1"><g transform="translate(233.557332, 329.428543)"><g><path d="M 1.527344 0 L 3.6875 0 L 3.6875 -5.398438 C 3.6875 -6.875 4.496094 -8.234375 5.925781 -8.234375 C 7.324219 -8.234375 7.664062 -7.066406 7.664062 -5.804688 L 7.664062 0 L 9.84375 0 L 9.84375 -5.496094 C 9.84375 -6.925781 10.652344 -8.234375 12.074219 -8.234375 C 13.480469 -8.234375 13.851562 -7.027344 13.851562 -5.765625 L 13.851562 0 L 16.03125 0 L 16.03125 -6.015625 C 16.03125 -8.164062 14.941406 -10.195312 12.414062 -10.195312 C 11.082031 -10.195312 9.894531 -9.59375 9.15625 -8.335938 C 8.554688 -9.59375 7.546875 -10.195312 6.277344 -10.195312 C 5.238281 -10.195312 4.257812 -9.703125 3.6875 -8.785156 L 3.6875 -9.984375 L 1.527344 -9.984375 Z M 1.527344 0 "/></g></g></g><g fill="#050a30" fill-opacity="1"><g transform="translate(250.831226, 329.428543)"><g><path d="M 1.449219 -11.972656 L 3.726562 -11.972656 L 3.726562 -14.121094 L 1.449219 -14.121094 Z M 1.527344 0 L 3.65625 0 L 3.65625 -9.984375 L 1.527344 -9.984375 Z M 1.527344 0 "/></g></g></g><g fill="#050a30" fill-opacity="1"><g transform="translate(256.016406, 329.428543)"><g><path d="M 1.527344 0 L 3.648438 0 L 3.648438 -5.375 C 3.648438 -7.34375 4.648438 -8.234375 6.078125 -8.234375 C 7.484375 -8.234375 8.09375 -7.09375 8.09375 -5.765625 L 8.09375 0 L 10.214844 0 L 10.214844 -6.015625 C 10.214844 -8.144531 9.222656 -10.183594 6.6875 -10.183594 C 5.554688 -10.183594 4.40625 -9.683594 3.648438 -8.644531 L 3.648438 -9.984375 L 1.527344 -9.984375 Z M 1.527344 0 "/></g></g></g><g fill="#050a30" fill-opacity="1"><g transform="translate(267.48572, 329.428543)"><g><path d="M 5.785156 -1.46875 C 4.117188 -1.6875 2.878906 -1.800781 2.878906 -2.679688 C 2.878906 -2.9375 3 -3.128906 3.21875 -3.277344 C 3.777344 -3.027344 4.417969 -2.886719 5.105469 -2.886719 C 7.265625 -2.886719 9.042969 -4.257812 9.042969 -6.464844 C 9.042969 -7.09375 8.894531 -7.664062 8.632812 -8.164062 L 10.132812 -9.363281 L 9.003906 -10.773438 L 7.496094 -9.453125 C 6.816406 -9.914062 5.976562 -10.171875 5.046875 -10.171875 C 2.878906 -10.171875 1.070312 -8.714844 1.070312 -6.554688 C 1.070312 -5.667969 1.378906 -4.878906 1.898438 -4.265625 C 1.320312 -3.757812 1.03125 -3.136719 1.03125 -2.328125 C 1.03125 -1.347656 1.46875 -0.730469 2.109375 -0.328125 L 0.9375 0.757812 C 0.917969 0.871094 0.898438 0.980469 0.898438 1.167969 C 0.898438 3.167969 2.617188 4.675781 5.457031 4.675781 C 7.816406 4.675781 9.742188 3.628906 9.742188 1.4375 C 9.742188 -0.839844 7.714844 -1.21875 5.785156 -1.46875 Z M 5.097656 -8.503906 C 6.257812 -8.503906 6.914062 -7.664062 6.914062 -6.554688 C 6.914062 -5.425781 6.265625 -4.636719 5.097656 -4.636719 C 3.9375 -4.636719 3.277344 -5.425781 3.277344 -6.554688 C 3.277344 -7.65625 3.949219 -8.503906 5.097656 -8.503906 Z M 5.507812 2.949219 C 3.917969 2.949219 2.839844 2.277344 2.738281 1.21875 L 3.449219 0.191406 C 3.976562 0.320312 4.546875 0.390625 5.058594 0.460938 C 6.675781 0.679688 7.734375 0.757812 7.734375 1.667969 C 7.734375 2.5 6.785156 2.949219 5.507812 2.949219 Z M 5.507812 2.949219 "/></g></g></g><g fill="#050a30" fill-opacity="1"><g transform="translate(277.886018, 329.428543)"><g/></g></g><g fill="#050a30" fill-opacity="1"><g transform="translate(282.95131, 329.428543)"><g><path d="M 1.910156 0 L 4.136719 0 L 4.136719 -6.015625 L 6.195312 -6.015625 C 9.035156 -6.015625 11.035156 -7.433594 11.035156 -10.035156 C 11.035156 -12.621094 9.035156 -14.121094 6.195312 -14.121094 L 1.910156 -14.121094 Z M 4.136719 -8.085938 L 4.136719 -12.050781 L 6.195312 -12.050781 C 7.964844 -12.050781 8.816406 -11.3125 8.816406 -10.035156 C 8.816406 -8.753906 7.976562 -8.085938 6.195312 -8.085938 Z M 4.136719 -8.085938 "/></g></g></g><g fill="#050a30" fill-opacity="1"><g transform="translate(294.550492, 329.428543)"><g><path d="M 1.527344 0 L 3.597656 0 L 3.597656 -4.457031 C 3.597656 -6.957031 4.738281 -8.113281 6.054688 -8.113281 C 6.476562 -8.113281 6.855469 -7.996094 7.1875 -7.753906 L 8.144531 -9.535156 C 7.707031 -9.964844 7.054688 -10.195312 6.386719 -10.195312 C 5.21875 -10.195312 4.078125 -9.496094 3.617188 -8.273438 L 3.617188 -9.984375 L 1.527344 -9.984375 Z M 1.527344 0 "/></g></g></g><g fill="#050a30" fill-opacity="1"><g transform="translate(302.63295, 329.428543)"><g><path d="M 5.605469 0.199219 C 8.613281 0.199219 10.613281 -2.1875 10.613281 -5.015625 C 10.613281 -7.84375 8.613281 -10.195312 5.605469 -10.195312 C 2.609375 -10.195312 0.621094 -7.84375 0.621094 -5.015625 C 0.621094 -2.1875 2.609375 0.199219 5.605469 0.199219 Z M 5.617188 -1.628906 C 3.65625 -1.628906 2.839844 -3.257812 2.839844 -5.015625 C 2.839844 -6.765625 3.65625 -8.355469 5.617188 -8.355469 C 7.574219 -8.355469 8.394531 -6.765625 8.394531 -5.015625 C 8.394531 -3.269531 7.574219 -1.628906 5.617188 -1.628906 Z M 5.617188 -1.628906 "/></g></g></g><g fill="#050a30" fill-opacity="1"><g transform="translate(313.872466, 329.428543)"><g><path d="M 1.488281 -11.992188 L 3.796875 -11.992188 L 3.796875 -14.121094 L 1.488281 -14.121094 Z M 0.929688 4.378906 C 2.867188 4.378906 3.726562 2.96875 3.726562 1.199219 L 3.726562 -9.984375 L 1.558594 -9.984375 L 1.558594 1.398438 C 1.558594 2.039062 1.328125 2.46875 0.75 2.46875 C 0.480469 2.46875 0.109375 2.386719 -0.21875 2.257812 L -0.738281 4.058594 C -0.328125 4.21875 0.371094 4.378906 0.929688 4.378906 Z M 0.929688 4.378906 "/></g></g></g><g fill="#050a30" fill-opacity="1"><g transform="translate(319.12757, 329.428543)"><g><path d="M 5.546875 0.179688 C 7.195312 0.179688 8.464844 -0.371094 9.554688 -1.539062 L 8.074219 -2.808594 C 7.355469 -2.019531 6.535156 -1.75 5.554688 -1.75 C 3.867188 -1.75 3.066406 -2.828125 2.929688 -4.289062 L 9.8125 -4.289062 C 9.855469 -4.4375 9.882812 -4.828125 9.882812 -5.1875 C 9.882812 -7.433594 8.804688 -10.171875 5.386719 -10.171875 C 2.160156 -10.171875 0.667969 -7.574219 0.667969 -4.945312 C 0.667969 -2.257812 2.230469 0.179688 5.546875 0.179688 Z M 2.929688 -5.875 C 3.109375 -7.265625 3.808594 -8.386719 5.367188 -8.386719 C 6.886719 -8.386719 7.664062 -7.367188 7.796875 -5.875 Z M 2.929688 -5.875 "/></g></g></g><g fill="#050a30" fill-opacity="1"><g transform="translate(329.697721, 329.428543)"><g><path d="M 5.355469 0.199219 C 7.285156 0.199219 8.785156 -0.871094 9.414062 -2.667969 L 7.496094 -3.417969 C 7.214844 -2.398438 6.386719 -1.707031 5.335938 -1.707031 C 3.519531 -1.707031 2.859375 -3.359375 2.859375 -4.976562 C 2.859375 -6.566406 3.539062 -8.273438 5.335938 -8.273438 C 6.40625 -8.273438 7.214844 -7.566406 7.496094 -6.527344 L 9.523438 -7.335938 C 8.785156 -9.214844 7.265625 -10.195312 5.335938 -10.195312 C 2.199219 -10.195312 0.679688 -7.617188 0.679688 -4.976562 C 0.679688 -2.308594 2.21875 0.199219 5.355469 0.199219 Z M 5.355469 0.199219 "/></g></g></g><g fill="#050a30" fill-opacity="1"><g transform="translate(339.628469, 329.428543)"><g><path d="M 4.828125 0.199219 C 5.496094 0.199219 6.15625 0.0585938 6.484375 -0.0703125 L 6.484375 -1.988281 C 6.15625 -1.828125 5.667969 -1.660156 5.21875 -1.660156 C 4.546875 -1.660156 4.039062 -2.019531 4.039062 -3.019531 L 4.039062 -8.195312 L 6.566406 -8.195312 L 6.566406 -9.984375 L 4.039062 -9.984375 L 4.039062 -14.019531 L 1.949219 -12.390625 L 1.949219 -9.984375 L 0.308594 -9.984375 L 0.308594 -8.195312 L 1.917969 -8.195312 L 1.917969 -2.726562 C 1.917969 -0.9375 2.917969 0.199219 4.828125 0.199219 Z M 4.828125 0.199219 "/></g></g></g></svg>