<svg xmlns="http://www.w3.org/2000/svg" xmlns:xlink="http://www.w3.org/1999/xlink" width="500" zoomAndPan="magnify" viewBox="0 0 375 374.999991" height="500" preserveAspectRatio="xMidYMid meet" version="1.0"><defs><g/><clipPath id="id1"><path d="M 75 75 L 279 75 L 279 246 L 75 246 Z M 75 75 " clip-rule="nonzero"/></clipPath><clipPath id="id2"><path d="M 67.707031 97.542969 L 266.839844 65.144531 L 294.417969 234.667969 L 95.289062 267.066406 Z M 67.707031 97.542969 " clip-rule="nonzero"/></clipPath><clipPath id="id3"><path d="M 67.707031 97.542969 L 266.839844 65.144531 L 294.417969 234.667969 L 95.289062 267.066406 Z M 67.707031 97.542969 " clip-rule="nonzero"/></clipPath><clipPath id="id4"><path d="M 71 75 L 279 75 L 279 246 L 71 246 Z M 71 75 " clip-rule="nonzero"/></clipPath><clipPath id="id5"><path d="M 67.707031 97.542969 L 266.839844 65.144531 L 294.417969 234.667969 L 95.289062 267.066406 Z M 67.707031 97.542969 " clip-rule="nonzero"/></clipPath><clipPath id="id6"><path d="M 67.707031 97.542969 L 266.839844 65.144531 L 294.417969 234.667969 L 95.289062 267.066406 Z M 67.707031 97.542969 " clip-rule="nonzero"/></clipPath><clipPath id="id7"><path d="M 78 125 L 253 125 L 253 222 L 78 222 Z M 78 125 " clip-rule="nonzero"/></clipPath><clipPath id="id8"><path d="M 67.707031 97.542969 L 266.839844 65.144531 L 294.417969 234.667969 L 95.289062 267.066406 Z M 67.707031 97.542969 " clip-rule="nonzero"/></clipPath><clipPath id="id9"><path d="M 67.707031 97.542969 L 266.839844 65.144531 L 294.417969 234.667969 L 95.289062 267.066406 Z M 67.707031 97.542969 " clip-rule="nonzero"/></clipPath></defs><g clip-path="url(#id1)"><g clip-path="url(#id2)"><g clip-path="url(#id3)"><path fill="#f4f6fc" d="M 272.453125 197.132812 C 272.042969 198.410156 271.613281 199.679688 271.15625 200.9375 C 266.78125 212.960938 260.066406 224.117188 249.898438 231.722656 C 243.894531 237.242188 236.351562 242.269531 227.015625 245.511719 C 217.816406 241.898438 210.496094 236.570312 204.71875 230.8125 C 196.429688 224.070312 190.691406 214.910156 186.78125 204.910156 C 186.710938 204.730469 186.644531 204.558594 186.574219 204.378906 C 184 203.417969 181.953125 202.589844 180.644531 202.03125 C 180.511719 202.242188 180.390625 202.453125 180.269531 202.667969 C 179.085938 205.894531 178.375 208.75 177.992188 211.242188 L 176.257812 211.765625 L 170.761719 213.445312 L 175.511719 215.105469 L 177.609375 215.835938 C 177.566406 221.707031 179.4375 224.515625 179.4375 224.515625 C 179.6875 226.054688 178.542969 226.136719 178.542969 226.136719 C 164.941406 225.167969 161.042969 214.765625 159.976562 207.730469 C 159.945312 207.578125 159.925781 207.421875 159.902344 207.269531 C 159.84375 206.835938 159.792969 206.417969 159.753906 206.015625 C 159.722656 205.976562 159.6875 205.9375 159.65625 205.90625 C 159.679688 205.847656 159.703125 205.78125 159.722656 205.722656 C 159.589844 204.238281 159.570312 203.023438 159.585938 202.242188 C 159.238281 202.230469 158.90625 202.238281 158.578125 202.273438 C 158.453125 202.265625 158.324219 202.265625 158.199219 202.285156 L 156.707031 202.527344 C 156.640625 202.460938 156.578125 202.390625 156.511719 202.320312 C 155.828125 202.371094 155.148438 202.417969 154.464844 202.457031 C 149.167969 202.746094 143.863281 202.65625 138.574219 202.085938 C 132.089844 201.382812 125.96875 200.109375 120.074219 197.230469 C 118.035156 196.234375 114.730469 194.828125 112.554688 192.851562 C 112.5 192.804688 112.453125 192.757812 112.402344 192.710938 C 108.972656 189.578125 108.851562 186.972656 108.851562 186.972656 L 111.875 184.757812 L 112.054688 176.832031 L 115.179688 181.140625 L 115.070312 177.207031 L 117.890625 179.976562 C 117.902344 179.890625 117.914062 179.804688 117.925781 179.71875 L 117.675781 175.917969 L 120.644531 178.640625 L 120.648438 175.148438 L 122.238281 177.050781 L 122.011719 173.804688 L 125.066406 176.523438 L 124.445312 172.707031 L 126.949219 174.8125 C 127.070312 173.484375 127.21875 171.730469 127.179688 171.367188 C 127.117188 171.273438 127.050781 171.179688 126.980469 171.085938 C 126.699219 171.761719 126.394531 172.390625 126.394531 172.390625 C 126.394531 172.390625 124.902344 170.359375 123.996094 169.191406 C 123.488281 169.074219 122.976562 168.941406 122.476562 168.777344 C 122.34375 168.734375 122.214844 168.691406 122.089844 168.644531 L 121.914062 169.558594 C 121.992188 169.921875 121.9375 170.085938 121.796875 170.152344 L 121.535156 171.523438 L 118.589844 167.347656 C 118.484375 167.378906 118.363281 167.382812 118.234375 167.335938 C 117.847656 167.183594 116.980469 166.949219 116.339844 166.585938 L 115.601562 169.230469 L 113.136719 165.25 C 113.039062 165.269531 112.929688 165.253906 112.804688 165.195312 C 112.15625 164.867188 111.582031 164.324219 111.085938 163.792969 C 111.035156 163.742188 110.984375 163.6875 110.933594 163.628906 L 110.535156 167.035156 L 108.628906 163.761719 C 108.363281 163.457031 108.144531 163.128906 108 162.871094 C 107.945312 162.78125 107.894531 162.691406 107.84375 162.597656 C 107.730469 162.617188 107.605469 162.597656 107.476562 162.507812 C 107.199219 162.3125 106.882812 162.070312 106.589844 161.796875 L 105.996094 165.105469 L 101.082031 157.375 C 93.824219 153.457031 87.910156 144.15625 87.890625 144.140625 L 87.890625 144.132812 C 83.039062 139 75.8125 123.375 75.8125 123.375 L 98.410156 122.796875 L 98.417969 122.796875 C 99.433594 122.730469 100.449219 122.679688 101.46875 122.660156 C 112.136719 122.421875 122.875 123.03125 133.519531 123.699219 C 141.714844 124.210938 149.894531 124.9375 158.0625 125.730469 C 158.238281 125.285156 158.523438 124.859375 158.753906 124.472656 C 159.019531 124.023438 159.300781 123.464844 159.671875 123.03125 C 159.675781 123.027344 159.675781 123.023438 159.679688 123.019531 C 160.59375 121.140625 161.984375 119.230469 162.527344 118.347656 C 166.011719 112.65625 170.3125 107.433594 174.339844 102.117188 C 175.632812 100.410156 176.988281 98.742188 178.394531 97.109375 C 178.445312 97.039062 178.472656 97.003906 178.472656 97.003906 L 178.480469 97.003906 C 178.527344 96.953125 178.578125 96.894531 178.625 96.839844 C 178.648438 96.808594 178.667969 96.78125 178.695312 96.75 C 193.59375 77.148438 208.855469 75.179688 208.855469 75.179688 L 197.914062 103.933594 L 192.011719 102.765625 C 192.117188 102.871094 192.222656 102.972656 192.320312 103.066406 C 192.65625 103.386719 192.976562 103.722656 193.300781 104.054688 L 196.628906 106.386719 L 196.738281 107.074219 L 192.105469 127.417969 C 193.976562 127.839844 199.164062 129.039062 205.867188 130.886719 C 206.054688 130.9375 206.238281 130.992188 206.429688 131.042969 C 218.996094 125.492188 229.675781 117.210938 229.675781 117.210938 C 229.675781 117.210938 251.605469 135.695312 269.699219 137.523438 C 269.710938 137.519531 275.945312 137.265625 277.390625 136.578125 C 278.382812 136.105469 281.683594 168.253906 272.453125 197.132812 Z M 272.453125 197.132812 " fill-opacity="1" fill-rule="nonzero"/></g></g></g><g clip-path="url(#id4)"><g clip-path="url(#id5)"><g clip-path="url(#id6)"><path fill="#050a30" d="M 277.390625 136.578125 C 275.945312 137.265625 269.710938 137.523438 269.703125 137.523438 C 251.609375 135.695312 229.675781 117.210938 229.675781 117.210938 C 229.675781 117.210938 220.167969 124.585938 208.535156 130.082031 C 200.652344 127.976562 194.546875 126.820312 192.332031 126.425781 L 195.097656 114.289062 L 197.085938 105.753906 L 192.730469 102.90625 L 197.917969 103.933594 L 208.859375 75.179688 C 208.859375 75.179688 193.59375 77.148438 178.695312 96.75 C 178.667969 96.78125 178.648438 96.808594 178.625 96.839844 C 178.578125 96.898438 178.527344 96.953125 178.480469 97.003906 L 178.472656 97.003906 C 178.472656 97.003906 178.445312 97.039062 178.394531 97.109375 C 176.988281 98.742188 175.632812 100.410156 174.339844 102.117188 C 170.3125 107.433594 166.011719 112.65625 162.527344 118.347656 C 162 119.207031 160.675781 121.027344 159.765625 122.855469 L 142.40625 122.265625 C 139.976562 122.148438 137.441406 122.0625 134.84375 122.007812 L 134.832031 122.007812 C 127.253906 121.84375 119.136719 121.917969 111.433594 122.109375 L 71.675781 121.941406 C 71.675781 121.941406 87.621094 148.96875 95.335938 153.078125 C 97.074219 154.722656 99.023438 156.265625 101.082031 157.375 L 105.996094 165.105469 L 106.589844 161.796875 C 106.882812 162.070312 107.199219 162.3125 107.476562 162.507812 C 107.605469 162.597656 107.730469 162.617188 107.84375 162.59375 C 107.894531 162.6875 107.945312 162.78125 108 162.871094 C 108.144531 163.128906 108.363281 163.457031 108.628906 163.761719 L 110.535156 167.035156 L 110.933594 163.625 C 110.984375 163.6875 111.035156 163.742188 111.085938 163.792969 C 111.582031 164.320312 112.15625 164.867188 112.804688 165.195312 C 112.929688 165.253906 113.039062 165.269531 113.136719 165.25 L 115.601562 169.230469 L 116.339844 166.585938 C 116.980469 166.949219 117.847656 167.183594 118.234375 167.335938 C 118.363281 167.382812 118.484375 167.378906 118.589844 167.34375 L 121.535156 171.523438 L 121.796875 170.152344 C 121.9375 170.085938 121.992188 169.921875 121.914062 169.558594 L 122.089844 168.644531 C 122.214844 168.691406 122.34375 168.734375 122.476562 168.777344 C 122.976562 168.941406 123.488281 169.074219 123.996094 169.191406 C 124.902344 170.359375 126.394531 172.390625 126.394531 172.390625 C 126.394531 172.390625 126.699219 171.761719 126.980469 171.085938 C 127.050781 171.179688 127.117188 171.273438 127.179688 171.367188 C 127.21875 171.726562 127.070312 173.484375 126.949219 174.808594 L 124.445312 172.707031 L 125.066406 176.523438 L 122.011719 173.804688 L 122.238281 177.050781 L 120.644531 175.148438 L 120.644531 178.636719 L 117.675781 175.917969 L 117.925781 179.71875 C 117.914062 179.804688 117.902344 179.890625 117.890625 179.976562 L 115.070312 177.207031 L 115.179688 181.140625 L 112.054688 176.832031 L 111.875 184.757812 L 108.851562 186.972656 C 108.851562 186.972656 108.972656 189.578125 112.402344 192.710938 C 112.453125 192.757812 112.5 192.804688 112.554688 192.851562 C 114.730469 194.828125 118.035156 196.234375 120.074219 197.230469 C 125.96875 200.105469 132.089844 201.382812 138.574219 202.085938 C 143.863281 202.65625 149.167969 202.746094 154.464844 202.457031 C 155.148438 202.417969 155.828125 202.371094 156.511719 202.320312 C 156.578125 202.386719 156.640625 202.457031 156.707031 202.527344 L 158.199219 202.285156 C 158.324219 202.265625 158.453125 202.265625 158.578125 202.273438 C 158.90625 202.238281 159.242188 202.230469 159.582031 202.242188 C 159.570312 203.023438 159.585938 204.238281 159.722656 205.71875 C 159.703125 205.78125 159.679688 205.84375 159.65625 205.902344 C 159.6875 205.9375 159.722656 205.976562 159.753906 206.015625 C 159.792969 206.417969 159.84375 206.835938 159.902344 207.265625 C 159.925781 207.421875 159.945312 207.578125 159.976562 207.730469 C 161.042969 214.765625 164.941406 225.167969 178.542969 226.136719 C 178.542969 226.136719 179.6875 226.054688 179.4375 224.515625 C 179.4375 224.515625 177.566406 221.707031 177.609375 215.835938 L 175.511719 215.101562 L 170.761719 213.445312 L 176.257812 211.765625 L 177.992188 211.242188 C 178.375 208.75 179.085938 205.894531 180.269531 202.667969 C 180.390625 202.449219 180.511719 202.242188 180.644531 202.03125 C 181.953125 202.589844 184 203.417969 186.574219 204.378906 C 186.644531 204.558594 186.710938 204.730469 186.78125 204.910156 C 190.691406 214.910156 196.429688 224.070312 204.71875 230.8125 C 210.496094 236.570312 217.816406 241.898438 227.015625 245.511719 C 236.351562 242.269531 243.894531 237.242188 249.898438 231.722656 C 260.066406 224.117188 266.78125 212.960938 271.15625 200.9375 C 271.613281 199.679688 272.042969 198.40625 272.453125 197.132812 C 281.683594 168.253906 278.382812 136.105469 277.390625 136.578125 Z M 193.964844 101.078125 Z M 162.734375 122.519531 C 163.824219 120.738281 164.953125 118.984375 166.128906 117.257812 C 167.300781 115.539062 168.496094 113.816406 169.699219 112.105469 L 169.699219 112.101562 C 171.875 109.015625 174.097656 105.957031 176.332031 102.949219 L 176.335938 102.949219 C 176.546875 102.667969 176.75 102.394531 176.957031 102.117188 C 180.082031 97.9375 183.578125 93.8125 187.226562 90.011719 C 190.273438 87.171875 193.953125 84.023438 197.71875 81.457031 C 198.074219 81.257812 198.425781 81.066406 198.78125 80.875 L 203.820312 78.550781 L 198.167969 91.472656 C 197.425781 93 196.695312 94.53125 196.0625 96.121094 C 196 96.277344 195.9375 96.4375 195.878906 96.597656 C 195.78125 96.851562 195.6875 97.109375 195.589844 97.363281 L 194.5 99.855469 C 194.335938 100.117188 194.179688 100.382812 194.070312 100.671875 L 188.019531 101.046875 L 191.570312 104.09375 C 192.195312 104.835938 192.789062 105.628906 193.445312 106.359375 C 192.875 106.875 192.675781 107.835938 192.402344 108.5625 C 192.289062 108.859375 192.191406 109.164062 192.085938 109.460938 C 191.738281 109.359375 191.382812 109.269531 191.019531 109.183594 C 190.398438 109.042969 189.65625 108.789062 189.019531 108.917969 C 188.964844 108.929688 188.90625 108.988281 188.925781 109.046875 C 189.09375 109.636719 189.609375 110.066406 190.058594 110.457031 C 190.492188 110.835938 190.945312 111.171875 191.421875 111.476562 C 190.976562 112.910156 190.5625 114.351562 190.113281 115.769531 C 189.972656 116.214844 189.828125 116.660156 189.6875 117.105469 L 189.257812 118.074219 C 184.925781 117.710938 174.449219 117.234375 167.074219 120.183594 C 167.074219 120.183594 176.519531 120.699219 183.378906 122.773438 C 176.347656 122.28125 165.425781 122.867188 162.378906 123.054688 C 162.523438 122.839844 162.648438 122.652344 162.734375 122.519531 Z M 104.621094 158.898438 C 104.648438 158.976562 104.53125 159.660156 104.53125 159.828125 C 104.53125 160.171875 104.574219 160.515625 104.628906 160.855469 L 104.640625 160.910156 L 104.507812 161.132812 L 104.386719 160.988281 C 104.132812 160.546875 103.875 160.105469 103.621094 159.671875 C 103.183594 158.933594 102.976562 158.148438 102.753906 157.347656 C 103.359375 157.726562 103.976562 158.09375 104.605469 158.445312 C 104.566406 158.597656 104.570312 158.761719 104.621094 158.898438 Z M 109.59375 161.007812 C 109.609375 161.699219 109.664062 162.375 109.714844 163.058594 C 109.722656 163.195312 109.734375 163.324219 109.746094 163.449219 C 109.410156 162.957031 109.09375 162.460938 108.84375 161.90625 C 108.609375 161.386719 108.421875 160.832031 108.1875 160.3125 C 108.65625 160.539062 109.125 160.757812 109.597656 160.976562 C 109.597656 160.988281 109.597656 160.996094 109.59375 161.007812 Z M 115.382812 167.015625 L 115.355469 166.984375 C 115.367188 166.976562 115.375 166.976562 115.386719 166.96875 C 115.386719 167 115.382812 167.015625 115.382812 167.015625 Z M 114.777344 165.472656 C 114.761719 165.449219 114.746094 165.429688 114.726562 165.410156 C 114.210938 164.746094 113.921875 164.058594 113.621094 163.292969 C 113.546875 163.097656 113.46875 162.863281 113.375 162.613281 C 113.859375 162.8125 114.347656 163.015625 114.835938 163.210938 C 114.664062 163.9375 114.75 164.726562 114.777344 165.472656 Z M 120.445312 167.78125 C 120.179688 167.410156 119.902344 167.050781 119.699219 166.644531 C 119.410156 166.058594 119.152344 165.449219 118.917969 164.835938 C 119.5 165.066406 120.082031 165.300781 120.660156 165.53125 C 120.550781 166.214844 120.378906 167.042969 120.445312 167.78125 Z M 125.933594 168.269531 C 125.9375 168.28125 125.890625 168.601562 125.863281 168.78125 C 125.816406 169.027344 125.765625 169.273438 125.730469 169.523438 C 125.589844 169.273438 125.445312 169.035156 125.34375 168.816406 C 125.078125 168.253906 124.824219 167.695312 124.550781 167.140625 C 125.050781 167.351562 125.550781 167.574219 126.046875 167.796875 C 125.964844 167.917969 125.917969 168.074219 125.933594 168.269531 Z M 127.4375 175.191406 C 127.4375 175.199219 127.433594 175.207031 127.433594 175.21875 L 127.425781 175.210938 Z M 123.527344 177.597656 C 123.546875 177.390625 123.578125 177.183594 123.59375 176.984375 L 123.671875 176.980469 C 123.800781 177.09375 123.921875 177.199219 124.011719 177.277344 C 124.332031 177.566406 124.648438 177.871094 124.980469 178.152344 C 124.464844 178.382812 123.933594 178.605469 123.40625 178.820312 C 123.433594 178.414062 123.480469 178.003906 123.527344 177.597656 Z M 119 179.199219 C 119.007812 179.085938 119.023438 178.980469 119.039062 178.867188 C 119.371094 179.28125 119.894531 179.707031 120.339844 180.046875 C 119.828125 180.265625 119.324219 180.492188 118.835938 180.738281 C 118.898438 180.226562 118.953125 179.710938 119 179.199219 Z M 113.117188 182.066406 C 113.128906 181.738281 113.195312 181.417969 113.261719 181.101562 C 113.488281 181.4375 113.78125 181.75 114.03125 182.042969 C 114.257812 182.3125 114.511719 182.570312 114.789062 182.800781 C 114.269531 183.085938 113.757812 183.382812 113.265625 183.710938 C 113.140625 183.175781 113.101562 182.621094 113.117188 182.066406 Z M 241.511719 216.019531 L 241.550781 216.089844 L 241.449219 216.023438 C 241.46875 216.023438 241.488281 216.019531 241.511719 216.019531 Z M 240.730469 205.484375 C 240.734375 205.496094 240.734375 205.503906 240.734375 205.515625 L 220.113281 193.433594 C 222.15625 193.589844 224.175781 193.742188 226.191406 194.144531 C 229.53125 194.8125 232.925781 196.054688 235.96875 197.582031 C 239.121094 199.160156 240.253906 202.15625 240.730469 205.484375 Z M 194.21875 207.457031 C 194.136719 207.277344 194.046875 207.101562 193.96875 206.921875 C 194.074219 206.960938 194.183594 206.992188 194.289062 207.027344 C 202.003906 209.457031 211.574219 211.808594 220.390625 212.085938 C 222.792969 212.3125 225.203125 212.445312 227.609375 212.445312 C 229.152344 212.441406 230.6875 212.394531 232.21875 212.292969 C 232.601562 212.269531 233.015625 212.242188 233.445312 212.21875 C 233.484375 212.21875 233.519531 212.214844 233.558594 212.214844 C 233.667969 212.207031 233.773438 212.203125 233.878906 212.195312 C 233.984375 212.191406 234.09375 212.179688 234.203125 212.175781 C 234.269531 212.175781 234.332031 212.167969 234.398438 212.164062 C 234.761719 212.140625 235.128906 212.109375 235.5 212.070312 C 235.546875 212.066406 235.59375 212.058594 235.640625 212.058594 C 235.777344 212.042969 235.917969 212.023438 236.054688 212.011719 C 236.113281 212 236.175781 211.996094 236.234375 211.984375 C 236.363281 211.96875 236.488281 211.949219 236.609375 211.933594 L 236.734375 211.914062 C 236.738281 211.910156 236.738281 211.910156 236.742188 211.910156 L 236.867188 211.890625 C 237.015625 211.863281 237.164062 211.835938 237.3125 211.804688 L 237.351562 211.800781 C 237.367188 211.796875 237.378906 211.796875 237.390625 211.789062 L 237.425781 211.78125 C 237.453125 211.777344 237.480469 211.769531 237.507812 211.765625 C 237.527344 211.761719 237.542969 211.753906 237.566406 211.75 C 237.871094 211.679688 238.171875 211.601562 238.464844 211.511719 L 238.566406 211.480469 C 238.605469 211.46875 238.636719 211.457031 238.671875 211.441406 C 238.71875 211.425781 238.773438 211.410156 238.820312 211.394531 C 238.796875 211.421875 238.773438 211.445312 238.75 211.480469 C 238.355469 212.046875 238.15625 212.816406 237.902344 213.453125 C 237.785156 213.742188 237.652344 214.023438 237.515625 214.304688 C 229.902344 214.359375 220.984375 216.996094 220.984375 216.996094 L 220.988281 216.996094 C 218.414062 217.5625 216.175781 218.246094 214.328125 218.910156 C 213.378906 219.179688 212.457031 219.5 211.558594 219.871094 C 209.3125 220.679688 206.378906 221.945312 204.839844 222.621094 C 200.402344 218.292969 196.921875 213.101562 194.21875 207.457031 Z M 227.171875 238.027344 C 224.554688 237 222.121094 235.8125 219.84375 234.503906 L 233.820312 232.949219 L 234.25 235.003906 C 232.039062 236.136719 229.679688 237.15625 227.171875 238.027344 Z M 247.089844 226.027344 C 244.855469 228.078125 242.375 230.050781 239.636719 231.859375 L 239.714844 231.304688 L 245.332031 221.523438 L 237.59375 229.085938 L 214.910156 231.320312 C 212.375 229.488281 210.078125 227.519531 208.011719 225.476562 C 211.121094 223.972656 217.894531 220.898438 223.339844 219.78125 C 226.703125 219.261719 230.109375 219.207031 233.457031 218.683594 L 242.835938 218.292969 C 242.835938 218.292969 248.320312 218.144531 252.707031 221.015625 C 250.984375 222.828125 249.117188 224.511719 247.089844 226.027344 Z M 268.765625 184.695312 C 268.804688 186.140625 268.757812 187.582031 268.609375 189.011719 C 268.601562 189.101562 268.59375 189.191406 268.582031 189.28125 C 268.566406 189.335938 268.554688 189.390625 268.542969 189.445312 C 265.789062 200.59375 261.144531 211.710938 253.511719 220.144531 C 252.539062 218.59375 250.617188 216.53125 246.859375 214.914062 C 249.183594 214.039062 251.578125 212.503906 253.277344 209.835938 C 253.277344 209.835938 248.410156 211.71875 243.324219 211.640625 C 243.324219 211.632812 243.328125 211.628906 243.332031 211.621094 C 243.378906 211.554688 243.421875 211.484375 243.472656 211.417969 C 243.488281 211.390625 243.503906 211.363281 243.523438 211.332031 C 243.585938 211.234375 243.644531 211.136719 243.703125 211.039062 C 243.710938 211.027344 243.71875 211.015625 243.726562 211.007812 C 243.800781 210.875 243.878906 210.746094 243.949219 210.613281 C 243.957031 210.597656 243.964844 210.578125 243.972656 210.566406 C 244.046875 210.433594 244.117188 210.304688 244.183594 210.171875 C 244.1875 210.167969 244.1875 210.164062 244.191406 210.160156 C 244.199219 210.140625 244.210938 210.117188 244.21875 210.097656 C 244.234375 210.070312 244.25 210.042969 244.261719 210.011719 C 244.28125 209.980469 244.300781 209.941406 244.316406 209.90625 C 244.382812 209.761719 244.449219 209.617188 244.515625 209.46875 C 244.578125 209.324219 244.636719 209.171875 244.699219 209.023438 C 246.054688 205.523438 246.582031 201.328125 246.804688 197.613281 C 246.824219 197.292969 246.835938 196.976562 246.839844 196.65625 L 246.84375 196.652344 C 246.886719 194.035156 246.46875 191.449219 245.566406 189.089844 C 244.148438 183.5625 241.1875 176.476562 235.074219 173.183594 C 235.074219 173.183594 238.070312 176.664062 240.21875 182.527344 C 234 178.046875 224.457031 175.785156 215.269531 174.6875 C 213.390625 171.167969 209.464844 165.34375 202.613281 161.300781 C 202.75 161.519531 207.191406 168.515625 209.046875 174.101562 C 208.949219 174.09375 208.84375 174.082031 208.746094 174.078125 C 207.90625 172.085938 206.679688 170.214844 205.328125 168.523438 C 197.855469 156.09375 188.664062 155.054688 185.117188 155.175781 L 184.125 146.453125 L 184.082031 145.578125 C 184.0625 145.574219 184.042969 145.570312 184.023438 145.566406 L 183.671875 142.492188 L 181.429688 153.855469 C 180.441406 153.695312 179.515625 153.875 178.75 154.152344 L 175.960938 141.078125 L 174.929688 152.933594 C 173.945312 152.597656 172.914062 152.640625 172.042969 152.8125 L 169.609375 141.410156 L 168.050781 152.109375 C 166.296875 151.636719 164.675781 153.027344 164.675781 153.027344 C 161.878906 154.199219 157.175781 152.59375 155.828125 152.085938 C 153.007812 150.875 150.582031 149.421875 150.582031 149.421875 C 155.496094 157.484375 164.214844 156.066406 166.679688 155.472656 C 167.929688 158.191406 172.363281 169.242188 164.382812 174.578125 C 164.382812 174.578125 166.578125 174.285156 168.699219 172.453125 C 169.332031 171.949219 169.957031 171.316406 170.523438 170.523438 C 171.652344 169.253906 172.214844 167.339844 172.46875 165.601562 C 172.46875 165.597656 172.46875 165.597656 172.46875 165.597656 C 172.496094 165.414062 172.519531 165.238281 172.539062 165.066406 C 172.699219 163.660156 172.699219 162.246094 172.601562 160.832031 C 172.53125 159.53125 172.355469 158.109375 172.058594 156.550781 C 172.832031 155.992188 173.351562 155.796875 174.324219 156.140625 C 174.324219 156.140625 181.957031 165.828125 171.648438 173.398438 C 171.648438 173.398438 183.578125 171.707031 179.152344 157.910156 C 180.019531 157.777344 180.867188 157.644531 181.773438 157.949219 C 181.789062 157.972656 181.804688 158.003906 181.816406 158.027344 C 183.097656 160.777344 185.144531 166.765625 181.195312 170.746094 C 181.117188 170.8125 181.035156 170.875 180.953125 170.9375 C 180.960938 170.945312 180.96875 170.949219 180.976562 170.957031 C 180.539062 171.367188 180.042969 171.757812 179.460938 172.117188 C 179.460938 172.117188 191.441406 171.011719 185.472656 158.285156 C 185.703125 158.230469 185.96875 158.222656 186.25 158.25 L 186.921875 158.363281 C 188.070312 158.632812 189.328125 159.253906 189.898438 159.492188 C 191.5625 160.179688 193.175781 161.015625 194.648438 162.054688 C 197.15625 163.824219 198.964844 166.246094 200.210938 169.023438 C 200.878906 170.507812 201.257812 172.09375 201.519531 173.691406 C 201.523438 173.710938 201.527344 173.734375 201.535156 173.753906 C 199.820312 173.71875 198.214844 173.710938 196.761719 173.71875 C 192.46875 173.242188 188.765625 173.972656 188.765625 173.972656 L 202.121094 184.113281 C 203.304688 185.140625 204.511719 186.144531 205.800781 187.0625 C 206.273438 187.398438 206.75 187.726562 207.226562 188.058594 C 207.464844 188.226562 207.707031 188.390625 207.949219 188.558594 C 208.019531 188.605469 208.089844 188.652344 208.160156 188.699219 C 208.195312 188.722656 208.226562 188.746094 208.261719 188.769531 C 208.46875 188.910156 208.679688 189.050781 208.886719 189.1875 L 204.285156 192.816406 L 212.378906 191.5 C 212.542969 191.601562 212.703125 191.707031 212.863281 191.8125 C 213.117188 191.976562 213.375 192.140625 213.632812 192.300781 C 213.800781 192.410156 213.976562 192.519531 214.148438 192.632812 C 214.464844 192.828125 214.785156 193.027344 215.097656 193.226562 C 215.378906 193.398438 215.660156 193.578125 215.941406 193.75 C 216.453125 194.070312 216.96875 194.390625 217.484375 194.703125 C 217.644531 194.796875 217.796875 194.894531 217.957031 194.992188 L 214.570312 196.5 C 214.386719 196.5625 214.207031 196.640625 214.039062 196.734375 L 211.707031 197.773438 L 226.140625 200.023438 L 222.9375 198.054688 C 222.941406 198.046875 222.949219 198.046875 222.953125 198.046875 C 224.019531 198.703125 225.078125 199.359375 226.140625 200.023438 C 226.25 200.089844 226.355469 200.15625 226.460938 200.222656 C 227.59375 200.933594 228.722656 201.644531 229.84375 202.367188 C 231.734375 203.578125 233.574219 204.851562 235.507812 205.996094 C 236.550781 206.609375 237.746094 207.144531 238.792969 207.820312 L 239.363281 208.21875 C 239.429688 208.269531 239.496094 208.324219 239.566406 208.378906 C 232.058594 209.21875 219.308594 207.96875 212.144531 207.113281 C 205.511719 206.394531 189.328125 201.453125 189.300781 201.445312 C 188.535156 201.113281 187.777344 200.777344 187.019531 200.429688 C 186.363281 200.125 185.714844 199.820312 185.0625 199.503906 C 182.691406 198.351562 180.359375 197.113281 178.085938 195.78125 C 176.804688 195.03125 175.546875 194.257812 174.308594 193.449219 C 173.976562 193.234375 173.644531 193.015625 173.316406 192.796875 C 173.289062 192.78125 173.265625 192.757812 173.238281 192.742188 C 173.226562 192.734375 173.222656 192.730469 173.214844 192.726562 C 172.820312 192.464844 172.425781 192.195312 172.035156 191.921875 C 171.945312 191.863281 171.859375 191.804688 171.777344 191.746094 C 171.378906 191.46875 170.988281 191.1875 170.597656 190.90625 C 170.546875 190.871094 170.5 190.839844 170.457031 190.804688 C 170.078125 190.527344 169.707031 190.257812 169.339844 189.976562 C 169.335938 189.972656 169.335938 189.972656 169.328125 189.96875 C 168.855469 189.523438 168.382812 189.101562 167.988281 188.695312 C 166.359375 187.019531 165.332031 185.042969 164.019531 183.152344 C 163.976562 183.085938 163.863281 183.140625 163.875 183.21875 C 163.902344 183.367188 163.945312 183.507812 163.980469 183.652344 L 163.964844 183.628906 C 163.964844 183.628906 159.875 188.0625 162.492188 194.5 C 162.1875 194.558594 161.878906 194.617188 161.578125 194.664062 C 158.945312 195.054688 156.300781 195.371094 153.652344 195.648438 C 148.28125 196.210938 142.84375 196.648438 137.4375 196.589844 C 134.960938 196.5625 132.394531 196.453125 129.828125 196.1875 C 116.203125 194.609375 110.871094 187.378906 110.871094 187.378906 C 111.601562 186.445312 116.5625 184.101562 116.898438 183.945312 C 116.90625 183.941406 116.914062 183.941406 116.914062 183.941406 C 119.804688 182.398438 122.714844 181.007812 125.777344 179.8125 C 126.359375 179.589844 126.945312 179.3125 127.527344 179.015625 C 127.527344 179.015625 135.46875 175.898438 138.109375 170.484375 L 129.679688 167.308594 C 124.515625 164.621094 118.886719 162.757812 113.519531 160.554688 C 105.890625 157.425781 99.089844 153.339844 93.410156 147.308594 C 93.210938 147.101562 93.015625 146.886719 92.816406 146.671875 L 83.695312 134.269531 C 83.371094 133.601562 83.058594 132.929688 82.785156 132.242188 C 81.902344 130.734375 81.125 129.378906 80.539062 128.332031 C 79.785156 127.003906 79.332031 126.175781 79.332031 126.175781 C 79.464844 126.078125 79.613281 125.992188 79.769531 125.910156 C 81 126.085938 83.167969 126.410156 85 126.773438 L 85.003906 126.78125 C 85.074219 126.792969 85.144531 126.804688 85.214844 126.816406 C 85.871094 126.949219 86.480469 127.085938 86.972656 127.226562 L 93.089844 129.25 C 93.804688 129.515625 94.519531 129.785156 95.226562 130.050781 C 97.710938 130.984375 100.113281 132.152344 102.476562 133.363281 C 102.71875 133.488281 102.964844 133.617188 103.203125 133.742188 C 103.203125 133.742188 103.210938 133.746094 103.214844 133.75 C 103.707031 134.175781 104.238281 134.433594 104.75 134.578125 C 105.414062 134.941406 106.074219 135.3125 106.734375 135.691406 C 106.839844 135.753906 106.964844 135.816406 107.097656 135.882812 C 107.25 136.035156 107.441406 136.132812 107.6875 136.148438 C 107.824219 136.214844 107.96875 136.277344 108.109375 136.347656 C 108.855469 137.140625 110.421875 138.675781 112.226562 139.691406 C 112.671875 140.042969 113.402344 140.53125 114.132812 140.8125 C 114.132812 140.8125 115.628906 141.03125 117.285156 140.582031 C 117.289062 140.582031 117.289062 140.582031 117.292969 140.582031 C 118.179688 140.34375 119.109375 139.917969 119.886719 139.164062 C 119.667969 139.699219 119.429688 140.226562 119.167969 140.714844 C 118.957031 141.113281 118.734375 141.476562 118.5 141.796875 C 118.121094 142.316406 117.710938 142.714844 117.285156 142.886719 C 117.484375 142.8125 118.363281 142.464844 119.410156 141.855469 C 119.949219 141.539062 120.527344 141.160156 121.085938 140.710938 C 121.714844 140.199219 122.308594 139.605469 122.765625 138.929688 C 122.121094 140.777344 120.542969 142.929688 120.542969 142.929688 C 120.542969 142.929688 123.804688 141.925781 124.734375 139.367188 C 124.878906 139.101562 125.007812 138.828125 125.117188 138.539062 C 125.261719 139.136719 125.355469 139.824219 125.316406 140.527344 C 125.300781 140.816406 125.257812 141.109375 125.183594 141.402344 L 124.007812 143.417969 C 124.007812 143.417969 127.125 142.277344 126.859375 138.804688 C 126.859375 138.769531 126.859375 138.734375 126.855469 138.699219 C 126.851562 138.652344 126.851562 138.605469 126.84375 138.554688 L 126.84375 138.566406 C 126.816406 138.296875 126.773438 138.019531 126.703125 137.730469 C 126.675781 137.613281 126.644531 137.496094 126.613281 137.375 C 126.347656 136.488281 125.894531 135.5625 125.335938 134.75 L 125.339844 134.75 C 123.304688 129.523438 111.5 133.050781 111.445312 133.0625 C 110.96875 133.132812 110.488281 133.183594 110.003906 133.222656 C 109.476562 133.402344 108.917969 133.46875 108.335938 133.429688 C 107.539062 133.375 106.695312 133.03125 106.046875 132.574219 C 105.761719 132.375 105.476562 132.140625 105.238281 131.871094 C 105.222656 131.855469 105.207031 131.839844 105.191406 131.820312 C 105.109375 131.722656 105.035156 131.628906 104.964844 131.519531 C 104.914062 131.453125 104.859375 131.382812 104.808594 131.3125 C 104.785156 131.28125 104.761719 131.246094 104.738281 131.210938 C 104.691406 131.140625 104.648438 131.066406 104.605469 130.992188 C 104.554688 130.90625 104.507812 130.8125 104.464844 130.714844 C 104.421875 130.621094 104.382812 130.523438 104.34375 130.429688 C 104.300781 130.3125 104.265625 130.195312 104.230469 130.074219 C 103.542969 128.644531 103.074219 127.023438 103.65625 125.914062 C 103.558594 126.039062 102.3125 127.65625 101.902344 129.539062 C 98.148438 127.703125 92.914062 125.992188 89.277344 124.898438 C 99.308594 124.628906 114.246094 124.957031 127.726562 125.402344 C 138.453125 126.074219 149.15625 126.898438 159.863281 127.953125 C 161.855469 128.152344 163.847656 128.347656 165.835938 128.542969 C 177.015625 129.65625 188.128906 130.886719 199.109375 133.425781 C 199.113281 133.425781 199.117188 133.429688 199.121094 133.429688 C 199.363281 133.488281 199.609375 133.542969 199.855469 133.597656 C 204.019531 134.558594 208.214844 135.503906 212.398438 136.523438 C 212.578125 136.566406 212.757812 136.609375 212.933594 136.65625 C 220.75 138.585938 228.507812 140.816406 235.835938 144.03125 C 241.230469 146.394531 246.523438 149.371094 251.242188 153.03125 C 251.242188 153.035156 251.242188 153.035156 251.246094 153.035156 C 257.289062 157.722656 262.394531 163.519531 265.550781 170.5625 C 265.914062 171.382812 266.253906 172.21875 266.5625 173.066406 C 266.660156 173.757812 266.851562 174.394531 267.175781 174.929688 C 268.136719 178.082031 268.683594 181.390625 268.765625 184.695312 Z M 173.292969 154.398438 C 173.132812 154.425781 172.972656 154.46875 172.816406 154.519531 C 173 154.425781 173.152344 154.394531 173.292969 154.398438 Z M 128.242188 175.550781 C 128.238281 175.472656 128.234375 175.402344 128.234375 175.328125 C 128.242188 175.003906 128.28125 174.6875 128.3125 174.371094 C 128.523438 174.589844 128.796875 174.777344 128.992188 174.9375 C 129.183594 175.101562 129.371094 175.28125 129.566406 175.453125 C 129.117188 175.730469 128.679688 175.996094 128.285156 176.246094 C 128.269531 176.113281 128.257812 175.980469 128.253906 175.847656 C 128.335938 175.726562 128.3125 175.628906 128.242188 175.550781 Z M 111.488281 134.914062 C 113.136719 134.742188 114.761719 134.367188 116.40625 134.199219 C 116.441406 134.195312 116.472656 134.195312 116.507812 134.195312 C 116.570312 134.492188 116.675781 134.792969 116.75 135.09375 C 116.761719 135.414062 116.671875 135.730469 116.480469 136.042969 C 116.3125 136.316406 116.070312 136.496094 115.859375 136.691406 L 114.574219 137.066406 C 114.53125 137.070312 114.484375 137.070312 114.441406 137.066406 C 112.847656 137.042969 112.28125 135.945312 111.488281 134.914062 Z M 270.75 171.460938 C 269.4375 168.636719 267.832031 166.09375 266.125 163.832031 C 257.933594 148.730469 236.875 138.996094 219.191406 133.230469 C 225.277344 129.625 229.484375 126.363281 229.484375 126.363281 C 229.484375 126.363281 232.949219 129.277344 238.140625 132.753906 C 243.332031 136.226562 250.25 140.253906 257.167969 142.472656 L 257.171875 142.472656 C 258.835938 143.007812 260.503906 143.441406 262.148438 143.734375 C 263.269531 143.976562 264.511719 144.210938 265.792969 144.40625 C 266.839844 144.675781 267.886719 144.867188 268.507812 144.789062 C 269.175781 144.851562 269.890625 144.890625 270.628906 144.894531 C 270.835938 148.394531 271.578125 162.503906 270.75 171.460938 Z M 98.253906 135.550781 C 98.472656 136.550781 98.371094 137.265625 98.371094 137.265625 L 95.398438 134.460938 L 95.398438 134.457031 C 94.8125 134.390625 94.210938 134.242188 93.785156 133.894531 C 93.050781 133.300781 92.875 131.957031 93.902344 131.488281 C 94.964844 131.003906 96.410156 132.203125 97.019531 132.96875 C 97.476562 133.539062 98.320312 134.671875 98.253906 135.550781 Z M 98.253906 135.550781 " fill-opacity="1" fill-rule="nonzero"/></g></g></g><g clip-path="url(#id7)"><g clip-path="url(#id8)"><g clip-path="url(#id9)"><path fill="#f4f6fc" d="M 79.769531 125.910156 L 97.75 151.378906 C 87.300781 146.585938 78.007812 125.40625 78.007812 125.40625 Z M 222.128906 220.054688 L 252.707031 221.015625 C 252.707031 221.015625 244.730469 214.171875 222.128906 220.054688 Z M 222.128906 220.054688 " fill-opacity="1" fill-rule="nonzero"/></g></g></g><g fill="#050a30" fill-opacity="1"><g transform="translate(66.308601, 298.175606)"><g><path d="M 21.574219 -9.421875 C 19.628906 -9.558594 16.605469 -9.558594 14.605469 -9.421875 C 14.390625 -7.910156 14.203125 -6.265625 14.066406 -4.617188 L 10.933594 -4.617188 L 10.933594 -12.796875 L 13.390625 -12.796875 C 13.6875 -14.230469 13.851562 -16.09375 13.824219 -17.710938 C 10.71875 -17.847656 4.050781 -17.847656 0.945312 -17.710938 C 0.648438 -16.226562 0.539062 -14.445312 0.484375 -12.796875 L 2.539062 -12.796875 L 2.539062 -4.941406 L 0.890625 -4.941406 C 0.621094 -3.402344 0.511719 -1.59375 0.433594 0 C 2.941406 0.160156 18.765625 0.160156 21.574219 0 C 21.679688 -3.050781 21.679688 -6.371094 21.574219 -9.421875 Z M 21.574219 -9.421875 "/></g></g></g><g fill="#050a30" fill-opacity="1"><g transform="translate(89.177615, 298.175606)"><g><path d="M 0.539062 -8.503906 C 0.539062 -1.808594 3.457031 0.539062 12.285156 0.539062 C 21.167969 0.539062 24.382812 -1.78125 24.382812 -9.476562 C 24.382812 -15.957031 21.03125 -18.253906 12.824219 -18.253906 C 3.699219 -18.253906 0.539062 -15.984375 0.539062 -8.503906 Z M 15.09375 -8.910156 C 15.09375 -6.480469 14.714844 -5.238281 12.445312 -5.238281 C 10.285156 -5.238281 9.855469 -6.425781 9.855469 -8.992188 C 9.855469 -11.257812 10.152344 -12.554688 12.554688 -12.554688 C 14.769531 -12.554688 15.09375 -11.285156 15.09375 -8.910156 Z M 15.09375 -8.910156 "/></g></g></g><g fill="#050a30" fill-opacity="1"><g transform="translate(114.773629, 298.175606)"><g><path d="M 25.21875 -4.941406 L 19.738281 -17.710938 C 17.117188 -18.0625 9.773438 -18.0625 7.828125 -17.710938 L 2.214844 -4.941406 L 0.675781 -4.941406 C 0.378906 -3.511719 0.214844 -1.621094 0.242188 0 C 3.347656 0.136719 7.910156 0.136719 11.015625 0 C 11.3125 -1.484375 11.449219 -3.078125 11.449219 -4.671875 L 8.992188 -4.671875 L 9.585938 -6.101562 L 15.28125 -6.101562 L 15.875 -4.671875 L 13.527344 -4.671875 C 13.285156 -3.238281 13.148438 -1.539062 13.175781 0 C 16.253906 0.136719 23.4375 0.136719 26.515625 0 C 26.8125 -1.484375 26.945312 -3.238281 26.945312 -4.941406 Z M 10.828125 -9.152344 L 12.257812 -12.664062 L 12.554688 -12.664062 L 14.011719 -9.152344 Z M 10.828125 -9.152344 "/></g></g></g><g fill="#050a30" fill-opacity="1"><g transform="translate(142.637644, 298.175606)"><g><path d="M 27.917969 -17.710938 C 24.8125 -17.847656 20.601562 -17.847656 17.496094 -17.710938 C 17.199219 -16.226562 17.089844 -14.445312 17.0625 -12.769531 L 19.46875 -12.769531 L 19.46875 -8.476562 L 19.195312 -8.476562 L 12.339844 -17.710938 C 9.234375 -17.847656 3.996094 -17.847656 0.890625 -17.710938 C 0.59375 -16.226562 0.484375 -14.417969 0.433594 -12.769531 L 2.511719 -12.769531 L 2.511719 -4.941406 L 0.863281 -4.941406 C 0.59375 -3.402344 0.460938 -1.621094 0.433594 0 C 2.941406 0.160156 8.128906 0.160156 10.933594 0 C 11.230469 -1.429688 11.339844 -3.320312 11.3125 -4.941406 L 8.992188 -4.941406 L 8.992188 -8.992188 L 9.234375 -8.992188 L 15.660156 0 C 19.035156 0.214844 22.625 0.214844 25.945312 0 L 25.945312 -12.769531 L 27.484375 -12.769531 C 27.78125 -14.203125 27.945312 -16.09375 27.917969 -17.710938 Z M 27.917969 -17.710938 "/></g></g></g><g fill="#050a30" fill-opacity="1"><g transform="translate(171.473664, 298.175606)"><g/></g></g><g fill="#050a30" fill-opacity="1"><g transform="translate(177.548668, 298.175606)"><g><path d="M 13.609375 -10.394531 C 10.773438 -10.773438 9.421875 -10.960938 9.421875 -11.746094 C 9.421875 -12.421875 9.855469 -12.71875 12.121094 -12.71875 C 12.851562 -12.71875 13.417969 -12.664062 14.011719 -12.554688 L 14.011719 -10.960938 C 16.066406 -10.828125 18.792969 -10.800781 20.871094 -10.960938 C 21.304688 -12.742188 21.410156 -15.820312 21.410156 -17.496094 C 19.574219 -17.820312 16.820312 -18.253906 12.394531 -18.253906 C 2.808594 -18.253906 0.675781 -16.441406 0.675781 -12.445312 C 0.675781 -9.019531 3.214844 -8.128906 7.53125 -7.53125 C 11.3125 -7.019531 13.121094 -6.964844 13.121094 -5.804688 C 13.121094 -4.996094 12.3125 -4.832031 10.882812 -4.832031 C 9.855469 -4.832031 9.019531 -4.859375 8.179688 -5.023438 L 8.179688 -6.667969 C 6.480469 -6.804688 3.023438 -6.804688 1.214844 -6.667969 C 0.863281 -4.804688 0.703125 -2.753906 0.675781 -0.269531 C 3.238281 0.242188 5.859375 0.539062 10.664062 0.539062 C 18.871094 0.539062 21.898438 -0.730469 21.898438 -5.183594 C 21.898438 -9.046875 19.304688 -9.613281 13.609375 -10.394531 Z M 13.609375 -10.394531 "/></g></g></g><g fill="#050a30" fill-opacity="1"><g transform="translate(200.417682, 298.175606)"><g><path d="M 24.570312 -4.941406 L 24.570312 -12.769531 L 26.21875 -12.769531 C 26.515625 -14.203125 26.675781 -16.09375 26.648438 -17.710938 C 23.488281 -17.847656 17.875 -17.847656 14.714844 -17.710938 C 14.417969 -16.226562 14.308594 -14.417969 14.257812 -12.769531 L 16.171875 -12.769531 L 16.171875 -10.773438 L 10.933594 -10.773438 L 10.933594 -12.769531 L 12.691406 -12.769531 C 12.988281 -14.203125 13.148438 -16.09375 13.121094 -17.710938 C 9.9375 -17.847656 4.105469 -17.847656 0.890625 -17.710938 C 0.59375 -16.226562 0.484375 -14.417969 0.433594 -12.769531 L 2.539062 -12.769531 L 2.539062 -4.941406 L 0.890625 -4.941406 C 0.621094 -3.402344 0.511719 -1.59375 0.433594 0 C 2.996094 0.160156 9.640625 0.160156 12.527344 0 C 12.824219 -1.429688 12.988281 -3.320312 12.960938 -4.941406 L 10.933594 -4.941406 L 10.933594 -7.183594 L 16.171875 -7.183594 L 16.171875 -4.941406 L 14.554688 -4.941406 C 14.28125 -3.402344 14.175781 -1.59375 14.09375 0 C 16.660156 0.160156 23.191406 0.160156 26.054688 0 C 26.351562 -1.429688 26.515625 -3.320312 26.488281 -4.941406 Z M 24.570312 -4.941406 "/></g></g></g><g fill="#050a30" fill-opacity="1"><g transform="translate(228.1737, 298.175606)"><g><path d="M 25.21875 -4.941406 L 19.738281 -17.710938 C 17.117188 -18.0625 9.773438 -18.0625 7.828125 -17.710938 L 2.214844 -4.941406 L 0.675781 -4.941406 C 0.378906 -3.511719 0.214844 -1.621094 0.242188 0 C 3.347656 0.136719 7.910156 0.136719 11.015625 0 C 11.3125 -1.484375 11.449219 -3.078125 11.449219 -4.671875 L 8.992188 -4.671875 L 9.585938 -6.101562 L 15.28125 -6.101562 L 15.875 -4.671875 L 13.527344 -4.671875 C 13.285156 -3.238281 13.148438 -1.539062 13.175781 0 C 16.253906 0.136719 23.4375 0.136719 26.515625 0 C 26.8125 -1.484375 26.945312 -3.238281 26.945312 -4.941406 Z M 10.828125 -9.152344 L 12.257812 -12.664062 L 12.554688 -12.664062 L 14.011719 -9.152344 Z M 10.828125 -9.152344 "/></g></g></g><g fill="#050a30" fill-opacity="1"><g transform="translate(256.037715, 298.175606)"><g><path d="M 19.953125 -7.964844 C 22.195312 -8.585938 23.652344 -9.9375 23.652344 -12.664062 C 23.652344 -16.714844 21.707031 -17.847656 11.824219 -17.847656 C 6.5625 -17.847656 3.1875 -17.820312 0.808594 -17.710938 C 0.511719 -16.226562 0.40625 -14.417969 0.351562 -12.769531 L 2.539062 -12.769531 L 2.539062 -4.941406 L 0.890625 -4.941406 C 0.621094 -3.402344 0.511719 -1.59375 0.433594 0 C 2.914062 0.160156 9.449219 0.160156 12.230469 0 C 12.527344 -1.429688 12.636719 -2.835938 12.609375 -4.453125 L 10.933594 -4.453125 L 10.933594 -6.425781 L 12.148438 -6.425781 C 14.6875 -0.351562 16.117188 0.324219 20.980469 0.324219 C 22.355469 0.324219 23.382812 0.109375 24.03125 -0.0546875 C 24.355469 -1.621094 24.433594 -3.265625 24.433594 -4.886719 C 22.140625 -5.15625 21.25 -6.265625 19.953125 -7.964844 Z M 10.933594 -12.769531 L 12.394531 -12.769531 C 14.714844 -12.769531 15.039062 -12.421875 15.039062 -11.449219 C 15.039062 -10.070312 14.554688 -9.613281 12.097656 -9.613281 L 10.933594 -9.613281 Z M 10.933594 -12.769531 "/></g></g></g><g fill="#050a30" fill-opacity="1"><g transform="translate(281.579736, 298.175606)"><g><path d="M 24.433594 -4.941406 C 23.140625 -6.5625 21.84375 -8.101562 20.519531 -9.53125 L 24.058594 -12.769531 L 26.242188 -12.769531 C 26.539062 -14.203125 26.703125 -16.09375 26.675781 -17.710938 C 23.515625 -17.847656 17.820312 -17.847656 14.632812 -17.710938 C 14.335938 -16.226562 14.230469 -14.417969 14.175781 -12.769531 L 16.523438 -12.769531 L 13.933594 -10.394531 L 10.933594 -10.394531 L 10.933594 -12.769531 L 12.609375 -12.769531 C 12.90625 -14.203125 13.066406 -16.09375 13.039062 -17.710938 C 9.855469 -17.847656 4.15625 -17.847656 0.972656 -17.710938 C 0.675781 -16.226562 0.566406 -14.417969 0.511719 -12.769531 L 2.539062 -12.769531 L 2.539062 -4.941406 L 0.890625 -4.941406 C 0.621094 -3.402344 0.511719 -1.59375 0.433594 0 C 2.996094 0.160156 9.585938 0.160156 12.445312 0 C 12.742188 -1.429688 12.90625 -3.023438 12.878906 -4.644531 L 10.933594 -4.644531 L 10.933594 -6.910156 L 12.015625 -6.910156 C 13.5 -4.507812 15.199219 -2.242188 16.820312 0 C 18.765625 0.136719 24.109375 0.136719 26.242188 0 C 26.515625 -1.429688 26.648438 -3.320312 26.621094 -4.941406 Z M 24.433594 -4.941406 "/></g></g></g></svg>